<?xml version="1.0" encoding="UTF-8"?>
<svg width="200px" height="200px" viewBox="0 0 200 200" version="1.1" xmlns="http://www.w3.org/2000/svg" xmlns:xlink="http://www.w3.org/1999/xlink">
    <title>儿童2</title>
    <g id="场景英语web端20230929✅" stroke="none" stroke-width="1" fill="none" fill-rule="evenodd">
        <g id="图标" transform="translate(-1233.000000, -316.000000)" fill-rule="nonzero">
            <g id="儿童2" transform="translate(1233.000000, 316.000000)">
                <path d="M22.2222223,0 L177.777778,0 C192.592593,0 200,7.40740742 200,22.2222223 L200,177.777778 C200,192.592593 192.592593,200 177.777778,200 L22.2222223,200 C7.40740742,200 0,192.592593 0,177.777778 L0,22.2222223 C0,7.40740742 7.40740742,0 22.2222223,0 Z" id="路径" fill="#BC9AA1"></path>
                <path d="M117.844445,121.066667 C117.844445,121.066667 118.918519,112.029629 119.17037,111.377778 C118.733333,111.688889 117.525926,112.340741 117.103704,112.674074 C114.422222,114.8 107.355555,115.525926 100.148148,115.362963 C92.9407408,115.525926 85.8740742,114.8 83.2,112.674074 C82.7777777,112.340741 81.5629629,111.688889 81.1333334,111.377778 C81.3851852,112.029629 82.4592594,121.074074 82.4518518,121.066667 C82.7185184,137.614815 79.6962963,139.985185 78.1925926,145.42963 C82.9851852,154.037037 89.9407408,162.4 94.7333334,171.007407 C95.7703705,172.866667 98.0148148,173.296296 99.4814814,174.644445 L99.4814814,175.385185 L100,175.637037 C100.051852,175.548148 100.103704,175.474074 100.155555,175.392593 C100.211681,175.471274 100.263606,175.55287 100.311111,175.637037 L100.82963,175.385185 L100.82963,174.644445 C102.311111,173.296296 104.533333,172.866667 105.577778,171.007407 C110.37037,162.4 117.325926,154.037037 122.118519,145.42963 C120.6,140 117.585185,137.614815 117.844445,121.066667 L117.844445,121.066667 Z" id="路径" fill="#FED0B9"></path>
                <path d="M133.259259,83.6592592 C130.977778,84.7777777 129.725926,85.6814814 128.725926,88.0296297 C131.592593,75.3629631 130.533333,61.2814814 119.340741,54.8962963 C107.592593,48.2296297 88.1111111,48.4444445 77.9925926,57.4222223 C71.325926,63.3481482 66.274074,75.3111111 71.1555555,88.0296297 C70.0592592,85.8074074 69.148148,83.5037037 66.6518518,83.6592592 C58.7555555,84.148148 60.5333332,93.7555555 62.4074074,97.3629629 C64.2814816,100.97037 67.8666666,103.77037 71.8962963,103.940741 C72.3842372,103.899525 72.8724919,104.016395 73.2888889,104.274074 C73.543835,104.52603 73.7234097,104.844134 73.8074074,105.192593 C75.9037037,111.562963 77.8592592,116.881481 83.2962963,121.274074 C88.7333334,125.666667 96.0222223,128.577778 103.2,127.385185 C111.688889,125.977778 120.333333,120.577778 123.385185,112.2 C124.325926,109.607407 124.02963,105.807407 126.814815,104.325926 C127.32346,104.101845 127.867548,103.968957 128.422222,103.933333 C132.562963,103.288889 135.82963,100.266667 137.637037,96.6 C138.939956,94.0255938 139.513754,91.1437966 139.296296,88.2666666 C139.022222,84.8444443 135.503704,82.5555555 133.259259,83.6592592 Z" id="路径" fill="#FEE1D2"></path>
                <path d="M119.162963,136.140741 C118.185185,139.844445 107.844444,153.711111 103.02963,160.044445 C102.438435,160.826639 101.521942,161.29546 100.541702,161.317115 C99.5614628,161.33877 98.6251602,160.910879 98,160.155555 C92.7555555,153.874074 81.3777777,139.829629 81.1333334,136.140741 C54.6296297,140 30.0666666,159.407407 30.0666666,182.755555 L30.0666666,200 L170.237037,200 C170.237037,200 170.711111,191.933333 170.237037,179.051852 C169.370371,155.718518 145.666667,140 119.162963,136.140741 L119.162963,136.140741 Z" id="路径" fill="#F195AE"></path>
                <path d="M100.103704,38.8962963 C56.7629629,38.8962963 66.0296297,83.3407408 66.0296297,83.3407408 C68.4985506,83.9631793 70.5459339,85.6829812 71.5851852,88.0074074 L75.2370371,76.4296297 C83.421545,78.1258753 91.7686735,78.9109028 100.125926,78.7703703 C108.485644,78.911268 116.835266,78.1262395 125.022222,76.4296297 L128.674074,88.0074074 C129.713325,85.6829812 131.760709,83.9631792 134.22963,83.3407408 C134.22963,83.3407408 142.822222,38.8962963 100.103704,38.8962963 L100.103704,38.8962963 Z" id="路径" fill="#606573"></path>
                <path d="M99.5555555,170.059259 C106.333333,170.503704 123.555555,145.829629 128.777778,138.103704 C125.60629,137.273446 122.391565,136.618136 119.148148,136.140741 C118.170371,139.844445 107.82963,153.711111 103.014815,160.044445 C102.42362,160.826639 101.507127,161.29546 100.526888,161.317115 C99.546648,161.33877 98.6103453,160.910879 97.9851852,160.155555 C92.7407406,153.874074 81.3629629,139.829629 81.1185186,136.140741 C78.0713327,136.589857 75.0573048,137.240669 72.0962963,138.088889 C76.6370371,145.185185 92.6888889,169.62963 99.5555555,170.059259 L99.5555555,170.059259 Z" id="路径" fill="#FFFFFF"></path>
            </g>
        </g>
    </g>
</svg>