<?xml version="1.0" encoding="UTF-8"?>
<svg width="199px" height="200px" viewBox="0 0 199 200" version="1.1" xmlns="http://www.w3.org/2000/svg" xmlns:xlink="http://www.w3.org/1999/xlink">
    <title>男1</title>
    <g id="场景英语web端20230929✅" stroke="none" stroke-width="1" fill="none" fill-rule="evenodd">
        <g id="图标" transform="translate(-76.000000, -316.000000)" fill-rule="nonzero">
            <g id="男1" transform="translate(76.000000, 316.000000)">
                <path d="M22.1092195,0 L176.873756,0 C191.613236,0 198.982976,7.36973984 198.982976,22.1092195 L198.982976,176.873756 C198.982976,191.613236 191.613236,198.982976 176.873756,198.982976 L22.1092195,198.982976 C7.36973984,198.982976 0,191.613236 0,176.873756 L0,22.1092195 C0,7.36973984 7.36973984,0 22.1092195,0 Z" id="路径" fill="#F7E094"></path>
                <path d="M117.00199,121.460682 C117.00199,121.460682 118.063232,112.4696 118.313804,111.828432 C117.886359,112.137962 116.677721,112.786499 116.257646,113.118137 C113.59717,115.233252 106.566438,115.955487 99.3956813,115.793353 C92.2249244,115.955487 85.1941926,115.233252 82.5337164,113.118137 C82.1062715,112.786499 80.9050039,112.137962 80.4701893,111.828432 C80.7207604,112.4696 81.7967424,121.475422 81.7893729,121.460682 C82.0473137,137.932051 79.0478297,140.290368 77.5517723,145.707127 C82.3199939,154.270764 89.2401797,162.583831 94.0084014,171.154838 C95.040165,173.004643 97.2731961,173.432088 98.7324047,174.77338 L98.7324047,175.510354 L99.2482865,175.760926 C99.2955505,175.677186 99.3472108,175.596006 99.403051,175.517724 L99.5578156,175.760926 L100.073697,175.510354 L100.073697,174.77338 C101.547645,173.432088 103.758567,173.004643 104.797701,171.154838 C109.565922,162.583831 116.486108,154.270764 121.25433,145.707127 C119.743533,140.290368 116.744049,137.932051 117.00199,121.460682 L117.00199,121.460682 Z" id="路径" fill="#FACDAC"></path>
                <path d="M132.412116,84.250866 C130.134866,85.3636967 128.89675,86.2628051 127.901835,88.5916428 C130.753924,75.9967574 129.700052,61.9868818 118.564375,55.6341662 C106.868597,49.0014004 87.4935514,49.2151229 77.4264867,58.1472475 C70.7937209,64.0430393 65.7675582,75.9451691 70.624217,88.5916428 C69.5261258,86.3807209 68.6270176,84.0961016 66.143415,84.250866 C58.2799025,84.7520084 60.0486402,94.3326701 61.9058146,97.8848846 C63.7629891,101.437099 67.3373129,104.25971 71.3464514,104.429214 C71.8318314,104.389256 72.3172792,104.505454 72.7319625,104.760852 C72.9856121,105.011527 73.1642737,105.328013 73.2478443,105.6747 C75.3334807,112.012676 77.2717223,117.304149 82.6884811,121.674405 C88.1052398,126.044661 95.3496941,128.940968 102.490972,127.75444 C110.936694,126.35419 119.53718,120.981649 122.573513,112.639104 C123.50947,110.067065 123.21468,106.286388 125.985703,104.80507 C126.493301,104.587893 127.034036,104.458316 127.584936,104.421844 C131.697251,103.780677 134.954676,100.773823 136.752893,97.1258014 C138.048471,94.5642396 138.619311,91.6972977 138.403714,88.8348441 C138.138404,85.4300244 134.645147,83.1527748 132.412116,84.250866 L132.412116,84.250866 Z" id="路径" fill="#FFE7D5"></path>
                <path d="M119.736163,136.693935 C118.468568,141.469526 111.032501,143.208785 99.8820842,143.208785 C88.7316678,143.208785 78.8193678,142.663424 78.5098385,137.887833 C52.1409094,141.749576 29.6705727,159.613826 29.6705727,182.843246 L29.6705727,200 L169.12816,200 C169.12816,200 169.599823,191.974353 169.12816,179.158376 C168.2659,155.943695 146.105092,140.555679 119.736163,136.693935 Z" id="路径" fill="#C28CC0"></path>
                <path d="M115.122706,65.4432898 C115.122706,65.4432898 109.05741,71.8623332 93.7504605,75.0681701 C78.4435109,78.274007 72.886727,83.911858 70.6536959,88.5916428 C70.6536959,88.5916428 68.184833,81.6935662 62.8491414,85.4373941 C62.8491414,85.4373941 55.4794016,64.7136857 59.3706242,57.3881643 C65.4727688,45.8987398 91.2521188,31.5572262 106.2348,35.1241801 C121.217481,38.691134 121.924976,43.3267006 122.278723,48.6771316 C122.632471,54.0275627 123.678974,62.5838307 115.122706,65.4432898 L115.122706,65.4432898 Z" id="路径" fill="#606573"></path>
                <path d="M120.863733,51.1754734 C120.863733,51.1754734 127.010096,43.0687596 131.675142,47.3284693 C136.988724,52.1703885 138.418454,60.3360602 139.008033,70.9116369 C139.280713,75.8714719 136.915027,82.5926746 134.770433,84.3761516 C134.770433,84.3761516 131.44668,82.5410863 127.938684,88.6284914 C127.938684,88.6284914 126.929029,61.9131844 117.621048,60.4834549 L120.863733,51.1754734 Z" id="路径" fill="#606573"></path>
                <path d="M120.819515,137.67411 C120.819515,137.67411 113.044439,146.318815 98.7913627,146.318815 C87.8399293,146.318815 76.8737562,139.192277 76.8737562,139.192277 L79.998526,130.87921 C80.1008176,130.478749 80.3820236,130.147812 80.760722,129.982222 C81.1394203,129.816631 81.5733128,129.834882 81.9367676,130.03169 C84.928882,131.638293 91.9743533,134.962046 99.3146141,134.939937 C105.417509,134.862304 111.3965,133.206974 116.670352,130.134866 C117.034667,129.923036 117.477357,129.894744 117.865674,130.058475 C118.253991,130.222206 118.542779,130.558919 118.645442,130.967647 L120.819515,137.67411 Z" id="路径" fill="#B374B0"></path>
            </g>
        </g>
    </g>
</svg>