<?xml version="1.0" encoding="UTF-8"?>
<svg width="200px" height="201px" viewBox="0 0 200 201" version="1.1" xmlns="http://www.w3.org/2000/svg" xmlns:xlink="http://www.w3.org/1999/xlink">
    <title>女2</title>
    <g id="场景英语web端20230929✅" stroke="none" stroke-width="1" fill="none" fill-rule="evenodd">
        <g id="图标" transform="translate(-785.000000, -316.000000)" fill-rule="nonzero">
            <g id="女2" transform="translate(785.000000, 316.000000)">
                <path d="M22.2222223,0 L177.777778,0 C192.592593,0 200,7.40740742 200,22.2222223 L200,177.777778 C200,192.592593 192.592593,200 177.777778,200 L22.2222223,200 C7.40740742,200 0,192.592593 0,177.777778 L0,22.2222223 C0,7.40740742 7.40740742,0 22.2222223,0 Z" id="路径" fill="#DAAFB8"></path>
                <g id="编组" transform="translate(33.000000, 38.000000)">
                    <path d="M47,81 L47,89 C53.5,87 60,86 67,86 C74,86 81,87 87,89 L87,81 L47,81 Z" id="路径" fill="#A0D9F6"></path>
                    <path d="M107,99.5 C105,98 103,96.5 101,95.5 L101,117 C104,112 106,106 107,99.5 Z M27,99.5 C27.5,106 29.5,112 33,117 L33,95.5 C31,97 29,98 27,99.5 Z" id="形状" fill="#A79CCB"></path>
                    <path d="M107,39.5 C106.5,18 89,0 67,0 C65,0 63,0 61,0.5 L60,0.5 C55.5,1.5 51,3 47,5.5 C36,12 28.5,23.5 27.5,36.5 L27.5,108.5 C29.5,107 31.5,105.5 33.5,104.5 C38,102 42.5,100 47,98 C53.5,96 60,95 67,95 C74,95 81,96 87,98 C92,99.5 96.5,101.5 100.5,104.5 C102.5,106 104.5,107 106.5,108.5 L106.5,40 C107,40 107,39.5 107,39.5 Z" id="路径" fill="#606573"></path>
                    <path d="M87,89 L87,125.5 L47,125.5 L47,89 C42,90.5 37.5,92.5 33.5,95.5 L33.5,117 C40.5,128 53,136 67.5,136 C82,136 94,128.5 101.5,117 L101.5,95.5 C96.5,93 92,91 87,89 L87,89 Z" id="路径" fill="#A79CCB"></path>
                    <path d="M83.1333332,82.6888889 C83.1333332,82.6888889 84.0814814,73.6518518 84.3037035,73 C83.9185184,73.3111111 82.8222221,73.9629629 82.474074,74.2962963 C80.0962963,76.4222223 73.8370369,77.148148 67.4518518,76.9851852 C61.0666666,77.148148 54.8074072,76.4222223 52.4296295,74.2962963 C52.0592592,73.9629629 50.948148,73.3111111 50.6,73 C50.8222223,73.6518518 51.7777777,82.6962963 51.7703703,82.6888889 C52.0074074,99.2370371 49.3333332,101.607407 48,107.051852 C52.2444445,115.659259 58.4074074,124.022222 62.6518518,132.629629 C63.5703703,134.488889 65.5629629,134.918518 66.8592592,136.266667 L66.8592592,137.007407 L67.3185184,137.259259 C67.3629629,137.17037 67.4148146,137.096296 67.4592592,137.014815 C67.5037037,137.096296 67.5555555,137.17037 67.6,137.259259 L68.0592592,137.007407 L68.0592592,136.266667 C69.3555555,134.918518 71.348148,134.488889 72.2666666,132.629629 C76.5111111,124.022222 82.674074,115.659259 86.9185184,107.051852 C85.5703701,101.607407 82.8962961,99.2370369 83.1333332,82.6888889 Z" id="路径" fill="#FED0B9"></path>
                    <path d="M107,39.5 L105,39.5 C85.5,39.5 68.5,31.5 56.5,18 C51,29.5 40,38 27,40.5 C27,50.5 31,59.5 37,66.5 C40,70 44,73 48,75.5 C53.5,78.5 60,80.5 67,80.5 C74,80.5 80,78.5 86,75.5 C90,73 94,70.5 97,66.5 C103,59.5 107,50 107,40 L107,39.5 L107,39.5 Z" id="路径" fill="#FCE9EA"></path>
                    <path d="M47,125.5 L87,125.5 L87,89 C80.5,87 74,86 67,86 C60,86 53,87 47,89 L47,125.5 Z M5,129.5 C6.02237523,130.281816 7.57417123,138.11515 9.655388,153 L33,153 L33,95.5 C20.5,103 10.5,115.5 5,129.5 Z M101,95.5 L101,153 L123.444038,153 C125.942458,138.326143 127.794446,130.49281 129,129.5 C123.5,115.5 113.5,103 101,95.5 Z" id="形状" fill="#FEFEFE"></path>
                    <path d="M85.3967058,95 C84.1688901,100.487066 78.3346481,107.371303 67.6145461,107.371302 C56.894444,107.371302 49.256583,100.487066 48.9856167,95 C23.5825311,99.4370722 0,121.59703 0,148.287206 L0,162 L134.382323,162 L134.382323,148.287206 C134.382323,121.59703 110.816727,99.4116691 85.3967058,95 Z" id="路径" fill="#FFFFFF"></path>
                    <path d="M87,89 L87,125.5 L47,125.5 L47,89 C42,90.5 37,93 33,95.5 L33,145.5 L33,162.5 L67,162 L101.5,162 L101.5,145 L101.257178,95.5 C95.4595352,92.1905421 93.984481,91.1430708 87,89 Z" id="路径" fill="#758FC8"></path>
                    <path d="M64.5,98 C64.5,99.9329966 66.0670034,101.5 68,101.5 C69.9329966,101.5 71.5,99.9329966 71.5,98 C71.5,96.0670034 69.9329966,94.5 68,94.5 C66.0670034,94.5 64.5,96.0670034 64.5,98 L64.5,98 Z M64.5,111.5 C64.5,113.432997 66.0670034,115 68,115 C69.9329966,115 71.5,113.432997 71.5,111.5 C71.5,109.567003 69.9329966,108 68,108 C66.0670034,108 64.5,109.567003 64.5,111.5 L64.5,111.5 Z" id="形状" fill="#758FC8"></path>
                </g>
            </g>
        </g>
    </g>
</svg>