<?xml version="1.0" encoding="UTF-8"?>
<svg width="200px" height="200px" viewBox="0 0 200 200" version="1.1" xmlns="http://www.w3.org/2000/svg" xmlns:xlink="http://www.w3.org/1999/xlink">
    <title>女1</title>
    <g id="场景英语web端20230929✅" stroke="none" stroke-width="1" fill="none" fill-rule="evenodd">
        <g id="图标" transform="translate(-311.000000, -316.000000)" fill-rule="nonzero">
            <g id="女1" transform="translate(311.000000, 316.000000)">
                <path d="M22.2189305,0 L177.751444,0 C192.564064,0 199.970375,7.40631016 199.970375,22.2189305 L199.970375,177.751444 C199.970375,192.564064 192.564065,199.970375 177.751444,199.970375 L22.2189305,199.970375 C7.40631016,199.970375 4.26325641e-14,192.564065 4.26325641e-14,177.751444 L4.26325641e-14,22.2189305 C4.26325641e-14,7.40631016 7.40631016,0 22.2189305,0 Z" id="路径" fill="#BF8DC0"></path>
                <path d="M104.762257,147.244853 C104.29566,147.08932 103.777218,146.704192 103.59206,147.067101 C103.088431,148.05214 101.370167,148.711302 101.133165,149.785217 C101.227567,151.402403 100.975043,153.021078 100.392534,154.532662 C99.8074359,156.199082 99.4371203,156.228707 98.4743002,157.776626 C97.3781662,157.776626 98.8816473,159.598578 98.3706117,158.983854 C96.0968744,156.228707 93.9268256,153.377278 91.7493705,150.570286 C90.171168,148.7623 88.7373448,146.833202 87.4611168,144.80077 C87.3918233,144.69704 87.3097039,144.602478 87.2167086,144.51933 C86.9230874,144.234436 86.6734787,143.907449 86.4760775,143.549104 C86.4039938,143.447536 86.3193881,143.355465 86.2242631,143.27507 C85.8330886,142.912403 85.5552777,142.44424 85.4243816,141.927122 C84.7726264,141.030958 84.0097764,140.216264 83.2913643,139.364539 C82.972893,138.994223 82.639609,138.446156 81.9582283,138.772034 C82.0396977,139.40157 80.7361871,138.409125 80.3362465,138.668346 C80.3362465,138.668346 77.2107836,140.571767 75.5369574,141.356836 C69.3230633,144.267516 63.4276402,146.867131 56.6730855,147.881795 C30.2844023,152.392238 27.5736928,186.742705 25.0925789,199.970375 L104.673382,199.970375 L104.673382,149.829655 C104.558279,149.169143 104.648763,148.489216 104.932603,147.881795 C105.102948,147.607762 105.088135,147.385572 104.762257,147.244853 L104.762257,147.244853 Z" id="路径" fill="#C4E4DE"></path>
                <path d="M104.384536,147.244853 C104.858539,147.08932 105.125167,147.378166 105.347356,147.748482 C105.827421,148.736979 106.180779,149.782124 106.399052,150.859132 C106.295364,152.503333 108.206192,153.014368 108.769071,154.562287 C109.35417,156.228707 109.724485,156.258332 110.679899,157.806251 C111.776033,157.806251 110.272552,159.628203 110.783588,159.013479 C113.049919,156.258332 115.182936,153.406903 117.375204,150.599911 C118.950977,148.793548 120.379998,146.864245 121.648645,144.830396 C121.718392,144.724791 121.803231,144.629972 121.900459,144.548956 C122.194412,144.264356 122.444061,143.937316 122.64109,143.578729 C122.71099,143.475415 122.795855,143.383062 122.892905,143.304696 C123.284427,142.943535 123.560187,142.474486 123.68538,141.956747 C124.337135,141.060584 125.099985,140.245889 125.818397,139.394164 C126.129462,139.023848 126.462746,138.475781 127.144127,138.801659 C127.062657,139.431195 128.351355,138.43875 128.758702,138.697971 C128.758702,138.697971 131.869353,140.601392 133.535772,141.386461 C139.727448,144.297141 145.593246,146.896756 152.318175,147.911421 C178.558732,152.421863 181.262035,186.77233 183.735743,200 L104.488224,200 L104.488224,149.85928 C104.604467,149.198072 104.511249,148.517068 104.221597,147.911421 C104.051252,147.607762 104.066064,147.385572 104.384536,147.244853 L104.384536,147.244853 Z" id="路径" fill="#BFDFDA"></path>
                <path d="M133.150644,74.8852021 C133.72093,67.7233002 133.446897,60.6206488 131.462006,53.6735299 C130.453014,49.900039 128.365659,46.5026183 125.455488,43.8972004 C123.603911,42.2678121 121.411643,41.1642719 119.315657,39.9126055 C114.360836,37.7499629 109.139387,37.1056139 103.762406,37.2167086 C99.010761,37.0021734 94.2630386,37.719238 89.7866982,39.327507 C89.5359667,39.3820431 89.2886621,39.4512884 89.0460672,39.5348838 C81.1287217,42.4974078 75.8332098,48.111391 72.7521848,55.828766 C69.8859428,62.9536363 69.0490297,70.4191971 69.2341875,78.0476967 C69.6066017,91.9677121 68.7066993,105.892648 66.5456969,119.648941 C66.3975707,120.522885 66.5456969,120.456229 67.4714857,120.811732 C74.2112279,123.515035 87.5203674,124.211228 88.2091543,121.81899 C88.5170373,119.931491 88.7099568,118.027029 88.7868465,116.116131 C88.8242693,115.528064 88.5861475,114.956024 88.1424975,114.568212 C83.9439403,109.583618 80.9079539,103.726694 79.2549252,97.4226041 C79.1945821,96.974835 78.9433955,96.5750972 78.5661383,96.3264701 C78.2438347,96.1831693 77.8711566,96.2109811 77.5736928,96.4005332 C76.1739002,97.1041326 76.1739002,97.1041326 75.4554881,95.8080285 C75.2952971,95.5415914 75.2084215,95.237527 75.2036734,94.9266775 C75.3061304,91.9389958 74.8334284,88.9594645 73.8112873,86.1502 C73.3947022,84.9392354 73.0582231,83.7021799 72.8040291,82.4470449 C72.7077471,81.8989779 72.6633092,81.3435047 73.2187824,81.017627 C73.7742557,80.6917492 74.1445713,81.017627 74.5371057,81.3657236 C74.7184669,81.5512157 74.9285368,81.7062674 75.1592357,81.8249148 C75.69249,83.7505555 76.0850246,85.7132277 76.6404977,87.6388684 C76.8034365,88.2091543 76.9589689,88.77944 77.7144127,88.801659 C78.6402016,87.6536809 78.5217006,86.2390756 78.7068582,84.9059398 C78.8920158,83.5728041 79.0031105,82.2841061 79.2475189,80.9880018 C79.1018737,81.9235615 79.0522403,82.8715585 79.0993928,83.8172123 C79.2178938,85.0910977 79.6844912,85.4466006 80.9583766,85.2244111 C81.3924391,85.1234644 81.8202594,84.997344 82.2396682,84.8466895 C86.3278024,83.588282 90.3432158,82.1047548 94.267516,80.4029033 C97.5298385,79.0782906 100.642978,77.4124879 103.555029,75.4332691 C103.969782,75.1370168 104.488224,74.9148273 104.540068,74.3963857 C105.102948,74.6926381 105.576952,74.30751 106.02133,73.9890387 C109.724485,71.3449859 113.109169,68.4417123 115.049622,64.1978967 C115.501407,63.2276701 116.108725,63.0869502 116.96045,63.6424234 C118.452006,64.5361597 119.8255,65.613556 121.048734,66.8493557 C124.885202,71.0265146 127.669975,75.7369279 128.684639,81.447193 C128.996256,83.6897222 129.194012,85.9466045 129.277144,88.2091543 C129.484521,88.5054066 129.640053,88.8683158 130.099245,88.8460969 C130.788031,88.6609391 130.884313,88.0610279 131.039846,87.5055547 C131.550881,85.6169455 131.958228,83.6987113 132.469264,81.8101021 C132.370041,81.4663915 132.339836,81.1064398 132.380388,80.7509998 C132.844364,78.8285696 133.102569,76.8622455 133.150644,74.8852021 L133.150644,74.8852021 Z M79.5511775,79.5067396 C79.5511775,79.3586135 79.6252406,79.2104873 79.6696785,79.0623611 C79.7141164,78.914235 79.6696785,78.7216709 79.6696785,78.699452 C79.731075,78.9739539 79.6888719,79.261462 79.5511775,79.5067396 L79.5511775,79.5067396 Z" id="形状" fill="#606573"></path>
                <path d="M131.913791,81.7064139 C131.595319,80.6695305 132.032292,79.6993039 132.165605,78.699452 C132.772289,74.2409125 132.943442,69.7338962 132.67664,65.2421863 C132.402607,60.531773 131.795289,55.850985 129.936306,51.4220115 C128.019333,46.8240225 124.552451,43.0426847 120.137757,40.7347061 C119.797067,40.5495482 119.397126,40.4828916 119.152718,40.1051695 C119.152718,40.1051695 119.152718,40.0311064 119.204562,40.0014812 C119.238867,39.975005 119.276152,39.9526339 119.315657,39.9348244 C124.507568,41.8712044 128.927434,45.4460959 131.906384,50.118501 C135.402163,55.3992002 137.009332,61.3464672 137.831432,67.5455488 C138.340242,71.7219166 138.525951,75.9313265 138.386906,80.1362762 C138.074035,93.2250149 138.961568,106.314882 141.038365,119.241594 C139.638572,122.004147 126.307214,123.218782 119.523034,123.248408 C118.834247,122.98178 118.782403,119.960006 118.715746,119.404533 C118.56762,118.300992 118.893497,117.18264 118.841653,116.108725 C118.700933,115.412531 119.130499,114.945934 119.53044,114.464524 C123.28822,109.938297 126.12835,104.723426 127.892164,99.1112428 C128.188416,98.1632352 128.114353,97.0522885 128.988298,96.3190639 C129.351638,96.1497641 129.777594,96.1864357 130.106651,96.4153459 C131.395349,97.1041328 131.395349,97.1041328 132.150792,95.7709969 C132.296959,95.5503852 132.381354,95.2946431 132.395201,95.0303658 C132.091542,91.3864611 133.209895,88.0017775 134.239372,84.5948748 C134.466118,83.8652655 134.651569,83.1234587 134.794845,82.3729818 C134.898533,81.8323213 134.935565,81.2768479 134.372686,80.9509703 C133.809806,80.6250928 133.454303,80.9509703 133.061769,81.2990668 C132.669234,81.6471633 132.439638,82.0174789 131.913791,81.7064139 L131.913791,81.7064139 Z" id="路径" fill="#606573"></path>
                <path d="M119.38972,120.885795 C119.38972,119.167531 119.337876,117.449267 119.308251,115.701378 C118.841653,115.471782 118.56762,115.753222 118.263961,116.049474 C117.169374,117.177694 116.01216,118.243419 114.797808,119.241594 C111.894534,121.641238 108.835728,123.774256 105.043697,124.529699 C104.588364,124.597072 104.178259,124.84207 103.903125,125.21108 C103.520939,124.867492 103.052384,124.634494 102.547771,124.537106 C101.22417,124.31769 99.9456045,123.882327 98.7631463,123.248408 C95.4326187,121.522718 92.401679,119.272021 89.7866982,116.582729 C89.3793512,116.182788 89.0460672,115.464376 88.2609984,115.760628 L88.1721227,120.945045 C88.1721227,125.107391 87.3426158,132.795141 84.9948156,136.498296 C89.8385424,140.764331 97.896608,141.97156 102.76996,146.222782 C103.118056,146.526441 103.347652,147.207821 104.051252,146.859724 C104.391942,146.578285 104.740039,146.304251 105.073322,146.007999 C109.828174,141.816027 118.456525,141.564213 123.218782,137.39446 C120.982077,132.306325 119.374907,125.048141 119.38972,120.885795 L119.38972,120.885795 Z" id="路径" fill="#DEB088"></path>
                <path d="M101.992297,177.225596 C101.947239,178.086558 101.242067,178.764966 100.380007,178.776695 C99.5179471,178.788423 98.7945795,178.129451 98.7261146,177.270034 C98.7029179,176.817401 98.871034,176.375859 99.1893943,176.053273 C99.5077545,175.730687 99.9470408,175.556763 100.399941,175.573989 C100.832729,175.573689 101.246996,175.749564 101.547384,176.061129 C101.847772,176.372694 102.008401,176.793108 101.992297,177.225596 L101.992297,177.225596 Z" id="路径" fill="#5D5959"></path>
                <path d="M101.992297,187.120427 C101.920824,187.980295 101.194132,188.637017 100.331441,188.621367 C99.4687492,188.605717 98.7663542,187.923071 98.7261146,187.061176 C98.6976615,186.451736 99.010526,185.877053 99.537833,185.570175 C100.06514,185.263298 100.719361,185.275166 101.235191,185.600966 C101.75102,185.926767 102.042836,186.51242 101.992297,187.120427 L101.992297,187.120427 Z" id="路径" fill="#5E5959"></path>
                <path d="M100.503629,165.753222 C100.917905,165.751894 101.313806,165.924114 101.595269,166.228095 C101.876733,166.532076 102.018036,166.940035 101.984891,167.352985 C102.02071,167.784165 101.871773,168.210278 101.575151,168.525262 C101.278529,168.840246 100.862119,169.014478 100.429566,169.004592 C99.9780833,169.018955 99.5405764,168.84694 99.2197705,168.528936 C98.8989647,168.210932 98.7231188,167.774951 98.7335209,167.32336 C98.7563169,166.879037 98.9566219,166.46249 99.2894565,166.167256 C99.6222911,165.872022 100.059761,165.722844 100.503629,165.753222 L100.503629,165.753222 Z" id="路径" fill="#5D5959"></path>
                <path d="M129.743742,87.8610576 C130.091838,79.5733965 127.233003,72.5077766 121.5968,66.5160717 C119.997566,64.8326827 118.124353,63.4327814 116.05688,62.3759443 C115.471782,62.0648793 115.175529,62.0278479 114.89409,62.7684787 C112.894386,67.9528959 108.843134,71.3301732 104.303066,74.2038217 L103.266183,75.0111094 C102.836617,75.2481113 102.399645,75.4703006 101.977485,75.7517404 C95.2343916,79.5010724 88.0920283,82.4822327 80.684343,84.6393127 C79.7659605,84.9207525 79.4993334,84.6837506 79.558584,83.7653682 C79.6474598,82.4766701 79.6622723,81.1805658 79.7067102,79.891868 C79.7585543,79.4919271 80.1214635,79.010517 79.4326766,78.8031402 C78.6849943,80.6603294 78.2109815,82.6162561 78.0254777,84.6096875 C77.9280439,85.730162 77.8934269,86.8552134 77.9217895,87.9795586 C77.9217895,88.2387795 78.1736039,88.7201896 77.5366613,88.6757518 C76.7960303,86.387202 76.5812473,83.9727447 75.6702711,81.7286328 C75.5295512,81.5582877 75.3962377,81.3805363 75.262924,81.2027848 C74.6704191,80.4621537 74.1075396,79.5733965 72.9817805,80.0548066 C71.8560213,80.5362168 71.8560213,81.5360687 72.1374611,82.5729521 C72.5596209,84.1208709 72.9225301,85.6910088 73.4557844,87.1944896 C74.4926678,90.1570137 74.3815732,93.2676641 74.9370463,96.2820322 C76.0335563,96.1422766 77.1459438,96.1923841 78.225448,96.4301584 C78.326382,96.6276855 78.410614,96.8333105 78.4772627,97.0448822 C80.1887577,103.979248 83.5503102,110.39745 88.2758109,115.753222 C89.5746852,117.333685 91.0480154,118.762294 92.6677529,120.01185 C95.9635609,122.618871 99.4000889,124.981484 103.777218,125.366612 C105.191264,125.217339 106.578809,124.878549 107.902533,124.359354 C112.278428,122.340413 116.162739,119.393695 119.286032,115.723596 C122.811272,111.710281 125.592667,107.100539 127.49963,102.110798 C128.195823,100.244408 128.721671,98.3113613 129.321582,96.4153459 C129.42438,96.3130164 129.507257,96.1924672 129.56599,96.059843 C129.914087,93.9934824 129.751148,91.8752777 130.254777,89.8311361 C130.18812,89.1497557 129.351207,88.6683455 129.743742,87.8610576 L129.743742,87.8610576 Z" id="路径" fill="#E8CDB6"></path>
                <path d="M78.032884,84.5874686 L78.032884,89.4163828 C77.462598,89.2756629 77.5218486,88.9571916 77.5440676,88.6757518 C78.0180715,87.8240262 77.6551623,86.8982373 77.7884758,86.0094801 C77.7737444,85.5238812 77.8568631,85.0402819 78.032884,84.5874686 L78.032884,84.5874686 Z" id="路径" fill="#C39E8A"></path>
                <path d="M79.7141164,79.869649 C79.558584,79.5215525 79.7659605,79.0771738 79.440083,78.7809213 L79.6993037,77.9662271 C79.9895266,78.5663538 79.9949642,79.2650782 79.7141164,79.869649 L79.7141164,79.869649 Z" id="路径" fill="#B58A78"></path>
                <path d="M129.299363,96.2079691 C129.000303,94.0225753 129.154086,91.7990208 129.751148,89.6756037 C129.543771,89.2534439 129.78818,88.9349727 130.039994,88.6535328 C130.780625,86.364983 131.002814,83.9431195 131.913791,81.7064139 C132.195222,81.3046346 132.501971,80.9211983 132.832173,80.5584357 C133.313583,80.0844318 133.86165,79.6548658 134.609688,80.0251814 C135.347112,80.3282258 135.752943,81.1241579 135.565102,81.8989779 C135.40946,82.7770866 135.201716,83.6451583 134.942971,84.4985928 C133.935713,87.8314324 132.891424,91.1642719 132.943268,94.6896756 C132.898417,95.2242294 132.799152,95.7528136 132.647015,96.2672197 C132.432232,96.2672197 132.180418,96.3560955 132.017479,96.2153756 C131.439731,95.6410554 130.506647,95.6410554 129.928899,96.2153756 C129.730724,96.3170924 129.495091,96.3143201 129.299363,96.2079691 L129.299363,96.2079691 Z" id="路径" fill="#E7CCB5"></path>
                <path d="M130.039994,88.6535328 C130.136276,89.0534736 129.854836,89.3349133 129.758554,89.6756037 C129.432881,89.1145936 129.432881,88.4220677 129.758554,87.8610576 C129.884462,88.135091 129.691897,88.4831877 130.039994,88.6535328 L130.039994,88.6535328 Z" id="路径" fill="#B08A79"></path>
                <path d="M101.659013,113.316546 L103.59206,113.538735 C102.941073,113.684422 102.259969,113.606135 101.659013,113.316546 Z" id="路径" fill="#DABEAA"></path>
                <path d="M79.4845209,143.852763 L79.1660494,143.852763 C79.0253295,143.230632 78.0847281,142.926974 78.0773219,142.253 L74.2038217,138.764628 C74.0556955,138.268405 74.6630129,138.186935 74.9888906,138.023996 C77.766257,136.468671 80.5584359,134.928159 83.3432084,133.387646 C83.9918499,133.166663 84.7097024,133.333205 85.1947859,133.817212 C90.3792031,137.150052 95.3562436,140.64583 100.466597,144.030514 C101.577544,144.771145 102.458895,145.756184 103.977188,146.089468 C107.20634,144.060139 110.279958,141.89009 113.435047,139.786698 C116.464228,137.764776 119.419345,135.691009 122.515183,133.728337 C122.982688,133.309801 123.639909,133.176657 124.233447,133.38024 C127.025626,134.928159 129.825211,136.468671 132.595171,138.031403 C132.935861,138.216561 133.528366,138.305436 133.395053,138.772034 L128.129166,143.623167 C128.129166,144.245297 127.307066,144.452674 127.025626,144.926678 C125.544364,146.311658 124.063102,147.689231 122.648496,149.074211 C121.233891,150.459191 119.537846,151.962672 117.997334,153.414309 C115.597689,155.636202 113.264702,157.909939 110.835432,160.11702 C109.657829,161.183528 109.465264,161.183528 108.717227,159.909643 C107.858095,157.769219 107.110058,155.606577 106.16205,153.480966 C106.072827,153.318805 106.106526,153.116607 106.24352,152.992149 C105.53992,151.288698 104.843727,149.585246 104.140127,147.889202 C103.569841,147.193008 103.399496,147.829951 103.325433,148.081766 C102.858836,149.081618 102.458895,150.096282 102.036735,151.10354 C101.970079,152.658865 101.036883,154.066064 100.555473,155.502888 C100.074063,156.939713 99.4593393,158.376537 98.8742408,159.805955 C98.7187084,160.183677 98.7038957,160.613243 98.0669531,160.73915 C96.8449119,160.73915 96.4523775,159.902237 95.8894979,159.368982 C92.860317,156.465709 89.7496668,153.606873 86.7130795,150.711006 C84.6467189,148.792771 82.6247963,146.844912 80.5510295,144.926678 C80.2251518,144.556362 79.8178047,144.230484 79.4845209,143.852763 L79.4845209,143.852763 Z" id="路径" fill="#F4F2F2"></path>
            </g>
        </g>
    </g>
</svg>