<?xml version="1.0" encoding="UTF-8"?>
<svg width="199px" height="200px" viewBox="0 0 199 200" version="1.1" xmlns="http://www.w3.org/2000/svg" xmlns:xlink="http://www.w3.org/1999/xlink">
    <title>男2</title>
    <g id="场景英语web端20230929✅" stroke="none" stroke-width="1" fill="none" fill-rule="evenodd">
        <g id="图标" transform="translate(-550.000000, -316.000000)" fill-rule="nonzero">
            <g id="男2" transform="translate(550.000000, 316.000000)">
                <path d="M22.1092195,0 L176.873756,0 C191.613236,0 198.982976,7.36973984 198.982976,22.1092195 L198.982976,176.873756 C198.982976,191.613236 191.613236,198.982976 176.873756,198.982976 L22.1092195,198.982976 C7.36973984,198.982976 0,191.613236 0,176.873756 L0,22.1092195 C0,7.36973984 7.36973984,0 22.1092195,0 Z" id="路径" fill="#EEBCD7"></path>
                <path d="M117.097796,121.460682 C117.097796,121.460682 118.159039,112.4696 118.41698,111.828432 C117.982165,112.137962 116.773528,112.786499 116.353453,113.118137 C113.692977,115.233252 106.662245,115.955487 99.4914879,115.793353 C92.3207311,115.955487 85.2899992,115.233252 82.629523,113.118137 C82.2094479,112.786499 81.0008105,112.137962 80.5659959,111.828432 C80.8239367,112.4696 81.892549,121.475422 81.8851793,121.460682 C82.1431201,137.932051 79.1436361,140.290368 77.6475789,145.707127 C82.4158006,154.270764 89.3359863,162.583831 94.104208,171.154838 C95.1359717,173.004643 97.3690027,173.432088 98.8282113,174.77338 L98.8282113,175.510354 L99.3440932,175.760926 L99.4988576,175.517724 L99.6536221,175.760926 L100.169504,175.510354 L100.169504,174.77338 C101.643452,173.432088 103.854374,173.004643 104.893507,171.154838 C109.661729,162.583831 116.581915,154.270764 121.350136,145.707127 C119.83934,140.290368 116.839855,137.932051 117.097796,121.460682 Z" id="路径" fill="#FACDAC"></path>
                <path d="M132.507922,84.250866 C130.238043,85.3636967 128.992557,86.2628051 127.997642,88.5916428 C130.849731,75.9967574 129.795858,61.9868818 118.660181,55.6341662 C106.971774,49.0014004 87.589358,49.2151229 77.5222934,58.1472475 C70.8895275,64.0430393 65.8633648,75.9451691 70.7200234,88.5916428 C69.6219322,86.3807209 68.722824,84.0961016 66.2392217,84.250866 C58.3830789,84.7372688 60.1518166,94.2958215 62.0163607,97.8848846 C63.8809049,101.473948 67.447859,104.25971 71.4569975,104.429214 C71.9423775,104.389256 72.4278253,104.505454 72.8425086,104.760852 C73.0961582,105.011527 73.2748198,105.328013 73.3583904,105.6747 C75.4440268,112.012676 77.3822684,117.304149 82.7990271,121.674405 C88.2157859,126.044661 95.4602402,128.940968 102.601518,127.75444 C111.04724,126.35419 119.647726,120.981649 122.684059,112.639104 C123.620016,110.067065 123.325227,106.286388 126.096249,104.80507 C126.603847,104.587893 127.144582,104.458316 127.695482,104.421844 C131.815167,103.780677 135.065222,100.773823 136.863439,97.1258014 C138.171727,94.5678274 138.755346,91.7007009 138.551109,88.8348441 C138.24158,85.4300244 134.740954,83.1527748 132.507922,84.250866 L132.507922,84.250866 Z" id="路径" fill="#FFE7D5"></path>
                <path d="M168.767042,179.158376 C167.904783,155.943695 145.102808,146.768369 119.389786,136.693935 C118.114821,141.469526 110.686123,143.208785 99.5283365,143.208785 C88.3705502,143.208785 80.9418525,141.469526 79.6742574,136.693935 C53.9096469,146.768369 31.1076719,155.943695 30.2159334,179.158376 C29.7442701,191.974353 30.2159334,200 30.2159334,200 L168.767042,200 C168.767042,200 169.209227,191.974353 168.767042,179.158376 Z" id="路径" fill="#9DB4EB"></path>
                <path d="M70.7495025,87.1766527 C70.7495025,87.1766527 75.7904047,68.8186309 97.2068686,68.4575135 L95.9392732,69.887243 C95.7682449,70.0888178 95.7501618,70.3788728 95.8948295,70.6001292 C96.0394971,70.8213856 96.3124575,70.921143 96.5657012,70.8453092 L102.785762,68.8186307 L102.284619,71.3169725 C102.240702,71.5307472 102.318466,71.7512951 102.486753,71.8902477 C102.65504,72.0292003 102.886319,72.0638252 103.087921,71.980249 L109.07215,69.4450586 C109.778463,69.1444183 110.576758,69.1444183 111.283072,69.4450586 C114.73948,70.8747881 125.020267,76.0778244 128.62407,88.6063822 C128.62407,88.6063822 130.223303,85.2973689 133.14172,84.2656055 C133.800559,77.4858537 133.669482,70.6525122 132.751124,63.9030143 C131.181369,52.3251529 125.742501,42.0885842 114.592085,37.2171863 C105.623111,33.2964848 94.9590979,32.7953424 85.9459061,36.8781781 C83.1454049,38.1531432 77.8391922,39.826074 74.6259855,39.7671162 C76.6452943,41.786425 79.8290219,41.5579631 79.8290221,41.5579631 C79.8290223,41.5579631 75.1713465,44.2184391 72.2234504,44.2184391 C72.7761809,45.6923871 74.7807502,45.8766305 74.7807502,45.8766305 C73.5082103,47.279221 72.3196131,48.7557393 71.2211658,50.2984744 C67.6247328,55.2730488 65.9149531,61.4120422 65.4285504,67.4920775 C65.2958951,69.1723783 66.5266416,84.3982607 66.9024982,84.250866 C66.8730193,84.250866 68.3911857,83.5802197 70.7495025,87.1766527 Z" id="路径" fill="#606573"></path>
                <path d="M80.9492225,131.844646 C84.4130002,133.790257 91.4511018,137.276144 98.3712875,137.96153 C99.2851352,139.066991 99.4914879,147.29899 99.4914879,147.29899 C99.4914879,147.298991 84.0150342,148.352863 75.9083203,138.005748 L77.8244527,133.009065 C78.0495431,132.410619 78.5226851,131.93892 79.1218162,131.715659 C79.7209473,131.492398 80.3873932,131.539439 80.9492225,131.844646 L80.9492225,131.844646 Z" id="路径" fill="#82A0E8"></path>
                <path d="M118.033753,131.844646 C114.569976,133.790257 107.531874,137.276144 100.611688,137.96153 C99.6978406,139.066991 99.4914879,147.29899 99.4914879,147.29899 C99.4914879,147.298991 114.967942,148.352863 123.111504,138.005748 L121.195372,133.009065 C120.971988,132.400115 120.492467,131.919977 119.883806,131.695808 C119.275145,131.471639 118.598749,131.526055 118.033753,131.844646 Z" id="路径" fill="#82A0E8"></path>
                <path d="M94.4063674,145.309161 L104.583978,145.309161 L104.583978,199.815756 L94.4063674,199.815756 L94.4063674,145.309161 Z M117.326258,173.719508 L141.292652,173.719508 L141.292652,178.156091 L117.326258,178.156091 L117.326258,173.719508 Z" id="形状" fill="#82A0E8"></path>
            </g>
        </g>
    </g>
</svg>