<?xml version="1.0" encoding="UTF-8"?>
<svg width="200px" height="200px" viewBox="0 0 200 200" version="1.1" xmlns="http://www.w3.org/2000/svg" xmlns:xlink="http://www.w3.org/1999/xlink">
    <title>儿童1</title>
    <g id="场景英语web端20230929✅" stroke="none" stroke-width="1" fill="none" fill-rule="evenodd">
        <g id="图标" transform="translate(-1009.000000, -316.000000)" fill-rule="nonzero">
            <g id="儿童1" transform="translate(1009.000000, 316.000000)">
                <path d="M22.2222223,0 L177.777778,0 C192.592593,0 200,7.40740742 200,22.2222223 L200,177.777778 C200,192.592593 192.592593,200 177.777778,200 L22.2222223,200 C7.40740742,200 0,192.592593 0,177.777778 L0,22.2222223 C0,7.40740742 7.40740742,0 22.2222223,0 Z" id="路径" fill="#EEBCD7"></path>
                <path d="M53.2592592,109.696296 C53.2592592,118.761948 60.6084221,126.111111 69.674074,126.111111 C78.7397259,126.111111 86.0888889,118.761948 86.0888889,109.696296 C86.0888889,100.630644 78.7397259,93.2814814 69.674074,93.2814814 C60.6084221,93.2814814 53.2592592,100.630644 53.2592592,109.696296 Z" id="路径" fill="#606573"></path>
                <path d="M113.911111,109.696296 C113.911111,118.761948 121.260274,126.111111 130.325926,126.111111 C139.391578,126.111111 146.740741,118.761948 146.740741,109.696296 C146.740741,100.630644 139.391578,93.2814814 130.325926,93.2814814 C121.260274,93.2814814 113.911111,100.630644 113.911111,109.696296 Z" id="路径" fill="#606573"></path>
                <path d="M115.681481,134.02963 C115.681481,134.02963 116.62963,124.992593 116.851852,124.340741 C116.466667,124.651852 115.37037,125.303704 115.022222,125.637037 C112.644445,127.762963 106.385185,128.488889 100,128.325926 C93.6148148,128.488889 87.3555555,127.762963 84.9777777,125.637037 C84.6074074,125.303704 83.4962963,124.651852 83.1481482,124.340741 C83.3703705,124.992593 84.325926,134.037037 84.3185186,134.02963 C84.5555557,150.577778 81.8814814,152.948148 80.5481482,158.392593 C84.7925928,167 90.9555557,175.362963 95.2,183.97037 C96.1185186,185.829629 98.1111111,186.259259 99.4074074,187.607407 L99.4074074,188.348148 L99.8666666,188.6 C99.9111111,188.511111 99.9629629,188.437037 100.007407,188.355555 C100.051852,188.437037 100.103704,188.511111 100.148148,188.6 L100.607407,188.348148 L100.607407,187.607407 C101.903704,186.259259 103.896296,185.82963 104.814815,183.97037 C109.059259,175.362963 115.222222,167 119.466667,158.392593 C118.118518,152.948148 115.444444,150.577778 115.681481,134.02963 Z" id="路径" fill="#FED0B9"></path>
                <path d="M133.740741,94.074074 C131.185185,93.9185186 130.251852,97.3111111 129.125926,99.5555555 C134.125926,86.8370369 128.948148,70.0592592 122.125926,64.1407408 C116.592593,59.3629631 108.333333,57.0370371 100,56.9703703 C91.6666666,57.0592592 83.4074074,59.3629629 77.874074,64.1629629 C71.0518518,70.0888889 65.874074,86.8592592 70.874074,99.5777777 C69.748148,97.3555555 68.8148148,93.9407406 66.2592592,94.0962963 C58.1703703,94.5851852 59.9925926,104.2 61.9111111,107.8 C63.8296297,111.4 67.5037037,114.207407 71.6296297,114.385185 C72.1264605,114.3374 72.6254101,114.451743 73.0518518,114.711111 C73.3138233,114.95997 73.4989197,115.278748 73.5851852,115.62963 C76.6666666,124.755556 81.7333334,131.185185 99.5111111,132.177778 C99.8274683,132.039216 100.187347,132.039216 100.503704,132.177778 C118.281481,131.207407 123.340741,124.77037 126.42963,115.62963 C126.515895,115.278748 126.700991,114.95997 126.962963,114.711111 C127.389405,114.451743 127.888354,114.3374 128.385185,114.385185 C132.511111,114.207407 136.192593,111.377778 138.103704,107.8 C140.014815,104.222222 141.82963,94.5851852 133.740741,94.074074 L133.740741,94.074074 Z" id="路径" fill="#FEE1D2"></path>
                <path d="M71.1111111,99.1925926 C71.2222223,97.2814814 75.6296297,92.9111111 79.4074074,90.3037037 L82.3703703,90.3037037 L82.6148148,89.725926 L85.6222223,82.4962963 L84.2,90.6444445 C85.7951837,91.0065407 87.4357935,91.1264025 89.0666666,91 L89.1925926,82.7555555 L90.5185186,91.1111111 C101.33431,92.2720898 112.250948,92.1178789 123.02963,90.6518518 C123.02963,90.6518518 128.755556,96.8444443 129.340741,99.8 C129.358535,99.8888926 129.430219,99.9570457 129.519896,99.9703312 C129.609573,99.9836167 129.697938,99.9391745 129.740741,99.8592592 C130.555556,98.3777777 131.814815,94.3629629 135.051852,94.3037037 C135.051852,94.3037037 142.496296,54.0814814 100.592593,53.9626681 C57,53.8370369 65.0370371,94.1037037 65.0370371,94.1037037 C65.0370371,94.1037037 68.6666668,94.6666666 70.7407408,99.2296297 C70.7855247,99.292019 70.8602087,99.3257543 70.9366261,99.3181126 C71.0130436,99.3104708 71.0795684,99.2626146 71.1111111,99.1925926 L71.1111111,99.1925926 Z" id="路径" fill="#606573"></path>
                <path d="M115.955555,136.140741 C114.881481,140.940741 109.777778,146.962963 100.4,146.962963 C91.0222223,146.962963 84.3407408,140.940741 84.1037037,136.140741 C61.8814814,140.022222 41.2518518,159.407407 41.2518518,182.755555 L41.2518518,200 L158.807407,200 L158.807407,182.755555 C158.807407,159.407407 138.192593,140 115.955555,136.140741 Z" id="路径" fill="#FFFFFF"></path>
                <path d="M127.733333,139.703704 L127.733333,159.703704 L72.2666666,159.703704 L72.2666666,139.555555 C68.7719147,141.050864 65.4407092,142.902637 62.325926,145.081481 L62.325926,200 L137.674074,200 L137.674074,145.266667 C134.557544,143.080312 131.226845,141.216412 127.733333,139.703704 L127.733333,139.703704 Z" id="路径" fill="#F195AE"></path>
                <path d="M68.5037037,168.785185 C68.5037037,171.252057 70.5034985,173.251852 72.9703704,173.251852 C75.4372423,173.251852 77.4370371,171.252057 77.4370371,168.785185 C77.4370371,166.318313 75.4372423,164.318518 72.9703704,164.318518 C70.5034985,164.318518 68.5037037,166.318313 68.5037037,168.785185 Z" id="路径" fill="#F16C90"></path>
                <path d="M122.562963,168.785185 C122.562963,171.252057 124.562758,173.251852 127.02963,173.251852 C129.496501,173.251852 131.496296,171.252057 131.496296,168.785185 C131.496296,166.318313 129.496501,164.318518 127.02963,164.318518 C124.562758,164.318518 122.562963,166.318313 122.562963,168.785185 Z" id="路径" fill="#F16C90"></path>
            </g>
        </g>
    </g>
</svg>