<?xml version="1.0" encoding="UTF-8"?>
<svg width="20px" height="20px" viewBox="0 0 20 20" version="1.1" xmlns="http://www.w3.org/2000/svg" xmlns:xlink="http://www.w3.org/1999/xlink">
    <title>个人</title>
    <g id="有光英语20230929✅" stroke="none" stroke-width="1" fill="none" fill-rule="evenodd">
        <g id="主菜单" transform="translate(-27.000000, -455.000000)">
            <rect fill="#F9F9F9" x="0" y="0" width="1920" height="1080"></rect>
            <g id="编组-7" fill="#909090" fill-rule="nonzero">
                <g id="编组-3" transform="translate(15.000000, 151.000000)">
                    <g id="个人-2" transform="translate(12.000000, 304.000000)">
                        <g id="编组" transform="translate(1.000000, 1.000000)">
                            <path d="M9,18 C4.02937501,18 0,13.970625 0,9 C0,4.02937501 4.02937501,0 9,0 C13.970625,0 18,4.02937501 18,9 C18,13.970625 13.970625,18 9,18 Z M9,16.875 C13.34925,16.875 16.875,13.34925 16.875,9 C16.875,4.65075 13.34925,1.125 9,1.125 C4.65075,1.125 1.125,4.65075 1.125,9 C1.125,13.34925 4.65075,16.875 9,16.875 Z" id="形状"></path>
                            <path d="M14.1286765,8.24999999 C14.5036765,8.24999999 14.6911765,8.43749999 14.6911765,8.81249999 C14.6911765,9.18749999 14.5036765,9.37499999 14.1286765,9.37499999 L3.87132353,9.37499999 C3.49632353,9.37499999 3.30882353,9.18749999 3.30882353,8.81249999 C3.30882353,8.43749999 3.49632353,8.24999999 3.87132353,8.24999999 L14.1286765,8.24999999 Z" id="路径"></path>
                        </g>
                    </g>
                </g>
            </g>
        </g>
    </g>
</svg>