<?xml version="1.0" encoding="UTF-8"?>
<svg width="20px" height="20px" viewBox="0 0 20 20" version="1.1" xmlns="http://www.w3.org/2000/svg" xmlns:xlink="http://www.w3.org/1999/xlink">
    <title>个人</title>
    <g id="有光英语20230929✅" stroke="none" stroke-width="1" fill="none" fill-rule="evenodd">
        <g id="主菜单" transform="translate(-27.000000, -309.000000)">
            <rect fill="#F9F9F9" x="0" y="0" width="1920" height="1080"></rect>
            <g id="编组-7" fill="#7ED321" fill-rule="nonzero">
                <g id="编组-3" transform="translate(15.000000, 151.000000)">
                    <g id="个人-2" transform="translate(12.000000, 158.000000)">
                        <g id="编组" transform="translate(2.000000, 0.000000)">
                            <path d="M15.6941111,3.98832104 C15.5032368,3.87057041 15.2623474,3.85175133 15.053587,3.93828117 L11.977626,5.21351166 C11.7535056,4.68038945 11.3988979,3.87901043 10.9751473,3.06934384 C9.86415108,0.946624892 8.9465794,0 8,0 C7.03546909,0 6.17177571,0.956349875 5.19951733,3.10092196 C4.83825216,3.89776415 4.54337191,4.68658828 4.35570139,5.22038428 L0.924871159,3.929769 C0.716923448,3.85154273 0.481449144,3.87576069 0.296196364,3.9944267 C0.110943584,4.1130927 0,4.31077626 0,4.52220687 L0,8.4952105 C0,10.5137172 0.83214152,12.411369 2.34315911,13.8386731 C3.6938733,15.1145774 5.4426592,15.8775056 7.32490445,16.0251098 L7.32490445,19.3623061 C7.32490445,19.7145167 7.62715552,20 8,20 C8.37284448,20 8.67509555,19.7144943 8.67509555,19.3623061 L8.67509555,16.0251322 C10.5573408,15.8775281 12.3061267,15.1145998 13.6568409,13.8386955 C15.1678585,12.4113915 16,10.5137172 16,8.49523296 L16,4.52222933 C16,4.30688649 15.8849774,4.10608073 15.6941111,3.98832104 Z M14.6498089,8.4952105 C14.6498089,11.9587867 11.6667202,14.7766061 8,14.7766061 C4.33327983,14.7766061 1.35019111,11.9587867 1.35019111,8.4952105 L1.35019111,5.46258801 L4.52972401,6.65864861 C4.70596802,6.72497638 4.90362912,6.71816113 5.07428476,6.63987243 C5.24494982,6.5616086 5.37288921,6.41914006 5.42680005,6.24732451 C5.43077078,6.23465732 5.83055441,4.96672618 6.40091303,3.69140586 C7.36703699,1.53106717 7.93413818,1.29728576 8.00097485,1.27671282 C8.07066474,1.29557884 8.66691632,1.51678289 9.80149913,3.7050388 C10.4671553,4.98889376 10.9610476,6.27065997 10.9659219,6.28337208 C11.0295489,6.44926066 11.1630874,6.58283793 11.3347769,6.65233407 C11.5064664,6.72183021 11.7009635,6.7210346 11.8720093,6.65013644 L14.6498089,5.49852328 L14.6498089,8.4952105 Z" id="形状"></path>
                            <path d="M5.97468956,17.0723534 C4.58852411,17.0723534 3.26035035,16.6736291 2.13380411,15.9192804 C1.82962712,15.7156172 1.40825413,15.7834226 1.19262205,16.0707251 C0.977013749,16.3580725 1.04877222,16.7561006 1.35294922,16.9597637 C2.70903698,17.8677807 4.30719665,18.3477411 5.97468956,18.3477411 C6.34755782,18.3477411 6.64978512,18.0622354 6.64978512,17.7100473 C6.64978512,17.3578592 6.34753404,17.0723534 5.97468956,17.0723534 L5.97468956,17.0723534 Z M13.8543075,15.9192804 C12.7277612,16.6736291 11.3995875,17.0723534 10.013422,17.0723534 C9.64055376,17.0723534 9.33832647,17.3578592 9.33832647,17.7100473 C9.33832647,18.0622354 9.64057754,18.3477411 10.013422,18.3477411 C11.6809149,18.3477411 13.2790746,17.8677807 14.6351624,16.9597637 C14.9393156,16.7561006 15.0111216,16.3580501 14.7954895,16.0707251 C14.5799288,15.7834675 14.1585796,15.7156397 13.8543075,15.9192804 L13.8543075,15.9192804 Z" id="形状"></path>
                        </g>
                    </g>
                </g>
            </g>
        </g>
    </g>
</svg>