<?xml version="1.0" encoding="UTF-8"?>
<svg width="20px" height="20px" viewBox="0 0 20 20" version="1.1" xmlns="http://www.w3.org/2000/svg" xmlns:xlink="http://www.w3.org/1999/xlink">
    <title>分享</title>
    <g id="有光英语20230929✅" stroke="none" stroke-width="1" fill="none" fill-rule="evenodd">
        <g id="主菜单" transform="translate(-27.000000, -405.000000)" fill="#AA50B7" fill-rule="nonzero" stroke="#AA50B7" stroke-width="0.2">
            <g id="编组-3" transform="translate(15.000000, 151.000000)">
                <g id="个人-2备份" transform="translate(12.000000, 254.000000)">
                    <g id="形状" transform="translate(1.000000, 2.000000)">
                        <path d="M14.7857231,10.4615237 C13.7323291,10.4615237 12.71073,11.1476905 12.1244056,11.943223 L7.4941476,9.71579724 C7.58643046,9.37987023 7.71431003,8.86584149 7.71431003,8.5 C7.71431003,8.13415851 7.6281554,7.65450737 7.53585363,7.31867654 L12.1035621,5.04881259 C12.6898864,5.84434516 13.7323291,6.53843786 14.785742,6.53843786 C16.5611515,6.53843786 18,5.07495649 18,3.26919969 C18,1.46346213 16.5611515,0 14.785742,0 C13.0103325,0 11.571484,1.46346213 11.571484,3.26919969 C11.571484,3.53546735 11.611639,3.79028863 11.6700275,4.03804971 L7.02310592,6.2619358 C6.32624643,5.24413197 5.16923989,4.57693344 3.85715502,4.57693344 C1.72638366,4.57693344 0,6.33282637 0,8.5 C0,10.6670967 1.72638366,12.423105 3.85715502,12.423105 C5.1692588,12.423105 6.32626534,11.7557911 7.02310592,10.7379488 L11.6700085,12.9619695 C11.6116201,13.2097498 11.571465,13.4644749 11.571465,13.7307234 C11.571465,15.5364802 13.0103135,17 14.7857231,17 C16.5611326,17 18,15.5364802 18,13.7307234 C18,11.9250435 16.5611326,10.4615237 14.7857231,10.4615237 Z M14.7857231,0.935736223 C16.0508437,0.935736223 17.0800464,1.98247341 17.0800464,3.26918046 C17.0800464,4.55602216 16.0508437,5.60272088 14.7857231,5.60272088 C13.5206402,5.60272088 12.4915322,4.55602216 12.4915322,3.26918046 C12.4915322,1.98247341 13.5206402,0.935736223 14.7857231,0.935736223 Z M3.85715502,11.4698626 C2.24741583,11.4698626 0.937222393,10.1372546 0.937222393,8.5 C0.937222393,6.8627646 2.24741583,5.53006045 3.85715502,5.53006045 C5.4668942,5.53006045 6.77708764,6.8627646 6.77708764,8.5 C6.77708764,10.1372546 5.4668942,11.4698626 3.85715502,11.4698626 Z M14.7857231,16.0642638 C13.5206402,16.0642638 12.4915322,15.0175458 12.4915322,13.7307234 C12.4915322,12.4439778 13.5206402,11.3972599 14.7857231,11.3972599 C16.0508437,11.3972599 17.0800464,12.4439778 17.0800464,13.7307234 C17.0800464,15.0175458 16.0508437,16.0642638 14.7857231,16.0642638 Z"></path>
                    </g>
                </g>
            </g>
        </g>
    </g>
</svg>