<?xml version="1.0" encoding="UTF-8"?>
<svg width="20px" height="20px" viewBox="0 0 20 20" version="1.1" xmlns="http://www.w3.org/2000/svg" xmlns:xlink="http://www.w3.org/1999/xlink">
    <title>个人</title>
    <g id="有光英语20230929✅" stroke="none" stroke-width="1" fill="none" fill-rule="evenodd">
        <g id="主菜单" transform="translate(-27.000000, -165.000000)">
            <rect fill="#F9F9F9" x="0" y="0" width="1920" height="1080"></rect>
            <g id="编组-3" transform="translate(15.000000, 151.000000)">
                <g id="个人-2" transform="translate(12.000000, 14.000000)">
                    <g id="个人" transform="translate(2.000000, 1.000000)">
                        <g id="速记" transform="translate(0.321600, 0.321600)">
                            <path d="M12.38383,0 L2.61617004,0 C1.17129922,0 0,1.32747245 0,2.96499271 L0,14.0350073 C0,15.6725275 1.17129922,17 2.61617004,17 L12.38383,17 C13.8287008,17 15,15.6725275 15,14.0350073 L15,2.96499271 C15,1.32747245 13.8287008,0 12.38383,0 Z" id="路径" stroke="#F94D41" fill-rule="nonzero"></path>
                            <rect id="矩形" fill="#F94D41" x="3.6784" y="3.6784" width="8" height="1" rx="0.5"></rect>
                            <rect id="矩形" fill="#F94D41" x="3.6784" y="6.6784" width="8" height="1" rx="0.5"></rect>
                            <rect id="矩形" fill="#F94D41" x="3.6784" y="9.6784" width="8" height="4" rx="0.5"></rect>
                        </g>
                    </g>
                </g>
            </g>
        </g>
    </g>
</svg>