<?xml version="1.0" encoding="UTF-8"?>
<svg width="20px" height="20px" viewBox="0 0 20 20" version="1.1" xmlns="http://www.w3.org/2000/svg" xmlns:xlink="http://www.w3.org/1999/xlink">
    <title>个人</title>
    <g id="有光英语20230929✅" stroke="none" stroke-width="1" fill="none" fill-rule="evenodd">
        <g id="主菜单" transform="translate(-27.000000, -214.000000)">
            <rect fill="#F9F9F9" x="0" y="0" width="1920" height="1080"></rect>
            <g id="编组-7" fill="#F0A41B" fill-rule="nonzero" stroke="#F0A41B" stroke-width="0.1">
                <g id="编组-3" transform="translate(15.000000, 151.000000)">
                    <g id="个人-2" transform="translate(12.000000, 63.000000)">
                        <g id="编组" transform="translate(1.000000, 0.000000)">
                            <path d="M17.9661,19.1407761 C17.9480201,18.7591468 17.9096001,18.3797492 17.8440602,17.9981199 C17.7129804,17.228166 17.4779407,16.4939201 17.1389411,15.7886869 C16.5468219,14.5545289 15.719663,13.5145332 14.6371244,12.6686998 C13.7896255,12.0014065 12.8494668,11.4992626 11.8166481,11.1645 C11.7511082,11.146646 11.6855683,11.1176333 11.6200284,11.0997793 C11.6381084,11.0908523 11.6494084,11.0819253 11.6584483,11.0819253 C12.1194877,10.8587502 12.5511472,10.5797814 12.9376067,10.2450189 C13.5026059,9.76296077 13.9636453,9.18716916 14.3094249,8.52657104 C14.7975842,7.59816286 15.0145439,6.61396092 14.967084,5.56503821 C14.949004,5.2503614 14.9105841,4.93345284 14.8450441,4.62770303 C14.6100045,3.55869458 14.1015051,2.6302864 13.3398861,1.83355149 C13.0099266,1.48986193 12.6347671,1.18411212 12.2302276,0.931924319 C11.3556087,0.385145464 10.40641,0.0771639041 9.38037134,0.0124431416 C9.09787171,-0.00541086184 8.80633209,-0.00541086184 8.52383246,0.0213701433 C8.20517288,0.0503828989 7.8842533,0.0950179075 7.57463371,0.170897422 C6.53955507,0.42085347 5.62877627,0.905143314 4.8468173,1.62823045 C4.33831797,2.10136154 3.92473851,2.6392134 3.61511892,3.25294477 C3.15407953,4.16349894 2.9484198,5.11868813 2.99361974,6.13190282 C3.00265972,6.41087163 3.04107967,6.68984043 3.0975796,6.95765048 C3.31453931,8.03558594 3.79365868,8.97292112 4.54623769,9.78081478 C5.04343704,10.3186666 5.63781626,10.7560897 6.29547539,11.0796935 C6.30451538,11.0886205 6.32485536,11.0886205 6.33389534,11.1087063 C6.12597562,11.173427 5.9112759,11.2381478 5.71465616,11.3229543 C5.50673643,11.4077608 5.3010767,11.4903356 5.10445696,11.5840691 C3.96541846,12.121921 2.98683975,12.8561669 2.15968083,13.7935021 C1.71672142,14.2956459 1.34156191,14.8424248 1.02290233,15.4271434 C0.627402848,16.1524623 0.356203205,16.9224162 0.186703428,17.7303098 C0.112123526,18.0829264 0.0556236003,18.4444699 0.0352836271,18.7993183 C0.026243639,18.9399185 0.0172036508,19.0782871 0.0059036657,19.2077286 C0.0059036657,19.3371701 -0.0121763105,19.4576846 0.0149436538,19.5893579 C0.0624035914,19.830387 0.297443282,19.9977682 0.550562949,19.9799142 C0.794642628,19.9620602 0.993522367,19.7567392 1.00256235,19.5157102 C1.01160234,19.3572559 1.01160234,19.1898746 1.02064233,19.0336521 C1.02968232,18.792623 1.05906228,18.560521 1.09522223,18.3194919 C1.16980213,17.8463608 1.28280199,17.370998 1.45230176,16.9179527 C1.82746127,15.86903 2.40150052,14.9495488 3.18345949,14.1505821 C3.70099881,13.6216573 4.27503805,13.1663802 4.9236572,12.7959096 C5.47735647,12.470074 6.0626957,12.220118 6.6728949,12.0438097 C7.10455433,11.9143682 7.54751375,11.8206347 7.99951315,11.7648409 C8.29105277,11.7269012 8.58259239,11.7090471 8.874132,11.7090471 C8.89221198,11.7090471 8.91255195,11.7001201 8.93063193,11.7090471 L9.10013171,11.7090471 C9.10917169,11.7090471 9.12951167,11.7090471 9.13855165,11.7179742 C9.24251152,11.7179742 9.34647138,11.7179742 9.44817125,11.7269012 C9.7871708,11.7447552 10.1352103,11.7826949 10.4742099,11.8474157 C11.179329,11.9768572 11.8573281,12.1911052 12.4969072,12.4968551 C13.5500659,12.9989989 14.4518047,13.695305 15.2043837,14.5857735 C15.8530028,15.3668861 16.3321222,16.2305735 16.6440018,17.1946897 C16.8044616,17.6968336 16.9084214,18.2079044 16.9649214,18.7368293 C16.9943013,18.9979441 17.0033413,19.2568271 17.0033413,19.5179419 C17.0123813,19.7879837 17.229341,20 17.5118406,20 C17.7853003,20 18,19.776825 18,19.5179419 C17.9661,19.3639511 17.9661,19.2523636 17.9661,19.1407761 L17.9661,19.1407761 Z M9.87079069,10.6244164 C9.58829106,10.6712832 9.30579143,10.6980642 9.02329181,10.709223 L8.78825212,10.709223 C8.59163237,10.71815 8.4221326,10.6802102 8.23455284,10.6534292 C7.70797354,10.5797814 7.20851419,10.4213272 6.72939482,10.1802981 C6.5214751,10.0776376 6.32485536,9.96605006 6.1372756,9.83660854 C5.70561617,9.53978573 5.31915668,9.18716916 5.0004971,8.76760008 C4.65245755,8.32125 4.39933789,7.8302649 4.22983811,7.2901813 C4.09875828,6.88177097 4.03095837,6.47336064 4.00383841,6.04486456 C3.99479842,5.76589575 4.00383841,5.47799995 4.04225836,5.19903114 C4.12813824,4.60538553 4.30667801,4.04744792 4.60725761,3.52745007 C4.89879723,3.00745222 5.27395674,2.54324813 5.74403612,2.16161881 C6.14857559,1.81792924 6.60057499,1.54788744 7.09777434,1.35372515 C7.62435365,1.13947711 8.16901293,1.02788959 8.73401219,1.00110858 C8.9509719,0.992181581 9.16567162,0.992181581 9.38263133,1.01003558 C9.61767102,1.02788959 9.85271072,1.06582934 10.0787104,1.1126961 C10.5872097,1.22428363 11.0663291,1.40951891 11.5183285,1.67063371 C11.922868,1.90273576 12.2799475,2.18170456 12.6099071,2.52539413 C12.7974868,2.73071517 12.9760266,2.93380446 13.1364864,3.1659065 C13.409946,3.56538983 13.6246458,4.00281291 13.7670256,4.46478525 C13.8890654,4.86426858 13.9546053,5.26375191 13.9749453,5.68108924 C13.9839853,5.87525152 13.9749453,6.08057256 13.9568653,6.27473485 C13.9387853,6.5246909 13.8913254,6.7768787 13.8348255,7.01790774 C13.7218256,7.45533083 13.5613658,7.87266816 13.3263261,8.26322448 C13.0347865,8.75420958 12.677707,9.19163266 12.2347476,9.55317623 C11.904788,9.83214504 11.5386685,10.0642471 11.143169,10.2494824 C10.7250696,10.4124001 10.3024501,10.5507687 9.87079069,10.6244164 L9.87079069,10.6244164 Z" id="形状"></path>
                        </g>
                    </g>
                </g>
            </g>
        </g>
    </g>
</svg>