<?xml version="1.0" encoding="UTF-8"?>
<svg width="20px" height="20px" viewBox="0 0 20 20" version="1.1" xmlns="http://www.w3.org/2000/svg" xmlns:xlink="http://www.w3.org/1999/xlink">
    <title>个人</title>
    <g id="有光英语20230929✅" stroke="none" stroke-width="1" fill="none" fill-rule="evenodd">
        <g id="主菜单" transform="translate(-27.000000, -262.000000)">
            <rect fill="#F9F9F9" x="0" y="0" width="1920" height="1080"></rect>
            <g id="编组-7" fill="#40B0F2" fill-rule="nonzero">
                <g id="编组-3" transform="translate(15.000000, 151.000000)">
                    <g id="个人-2" transform="translate(12.000000, 111.000000)">
                        <g id="编组" transform="translate(2.000000, 2.000000)">
                            <path d="M7.7265,0 C8.1353449,0.000433748779 8.47308191,0.305416413 8.4970421,0.695813552 C8.5210023,1.08621069 8.22289259,1.4268981 7.8169091,1.47308696 L7.7265,1.47826087 L2.31740908,1.47826087 C1.9256558,1.4783103 1.59592603,1.75876612 1.5500909,2.13091304 L1.54468181,2.2173913 L1.54468181,14.7826087 C1.54473349,15.1573292 1.83793731,15.4727229 2.227,15.5165652 L2.31818181,15.5217391 L14.6795,15.5217391 C15.0766818,15.5202609 15.4035455,15.2349565 15.4491364,14.8683478 L15.4545455,14.7826087 L15.4545455,10.3478261 C15.4549989,9.95675705 15.7738444,9.63370426 16.1819869,9.61078582 C16.5901294,9.58786737 16.9463026,9.87301578 16.9945909,10.2613478 L17,10.3478261 L17,14.7848261 C16.9957511,15.956813 16.0408139,16.9242471 14.8178182,16.9955652 L14.6818182,17 L2.31818181,17 C1.09066002,17 0.0758782337,16.0848246 0.00386362429,14.9126957 L0,14.7826087 L0,2.2173913 C0,1.04350894 0.956306305,0.072954715 2.18140908,0.00369565723 L2.31740908,0 L7.7265,0 Z M16.5587727,1.02 C16.8088409,1.19046108 16.9665186,1.45862162 16.9889273,1.75155864 C17.011336,2.04449566 16.896146,2.33175405 16.6746818,2.53521739 L8.8624091,11.0278261 L6.52104545,11.8334783 C6.39963724,11.8487188 6.2775278,11.8106908 6.18877272,11.73 L6.18877272,11.633913 L6.96922728,9.60869566 L14.7737727,1.12347825 C15.2425565,0.634826601 16.031724,0.589077762 16.5587727,1.02 Z" id="形状"></path>
                        </g>
                    </g>
                </g>
            </g>
        </g>
    </g>
</svg>