<?xml version="1.0" encoding="UTF-8"?>
<svg width="20px" height="20px" viewBox="0 0 20 20" version="1.1" xmlns="http://www.w3.org/2000/svg" xmlns:xlink="http://www.w3.org/1999/xlink">
    <title>个人</title>
    <g id="有光英语20230929✅" stroke="none" stroke-width="1" fill="none" fill-rule="evenodd">
        <g id="主菜单" transform="translate(-27.000000, -406.000000)">
            <rect fill="#F9F9F9" x="0" y="0" width="1920" height="1080"></rect>
            <g id="编组-7" fill="#6C73E1" fill-rule="nonzero">
                <g id="编组-3" transform="translate(15.000000, 151.000000)">
                    <g id="个人-2" transform="translate(12.000000, 255.000000)">
                        <g id="编组" transform="translate(2.000000, 0.000000)">
                            <path d="M6.6354196,17.0252746 L1.91448172,17.0252746 L1.91448172,1.9747254 L6.6354196,1.9747254 C7.15102434,1.95901736 7.56437834,1.52368017 7.56437834,0.987362702 C7.56437834,0.451045234 7.15102434,0.015708043 6.6354196,0 L1.14216239,0 C0.513429189,0 -2.37437861e-15,0.529585449 -2.37437861e-15,1.17810322 L-2.37437861e-15,17.8218968 C-2.37437861e-15,18.4704146 0.513429189,19 1.14216239,19 L6.6354196,19 C7.15102434,18.984292 7.56437834,18.5489548 7.56437834,18.0126373 C7.56437834,17.4763198 7.15102434,17.0409826 6.6354196,17.0252746 Z" id="路径"></path>
                            <path d="M16.7212574,8.80099209 L13.1533596,5.12082201 C12.781341,4.73709696 12.1721878,4.73709696 11.8001692,5.12082201 C11.4281505,5.50454707 11.4281505,6.13286878 11.8001692,6.51659383 L13.6646133,8.4397071 L6.81599004,8.4397071 C6.25034771,8.4397071 5.78913166,8.91768041 5.78913166,9.498878 C5.78913166,10.0823196 6.25252326,10.5580489 6.81599004,10.5580489 L13.6624377,10.5580489 L11.7979936,12.4811622 C11.425975,12.8648872 11.425975,13.4932089 11.7979936,13.876934 C12.1700122,14.260659 12.7791655,14.260659 13.1511841,13.876934 L16.7190818,10.1967639 C17.093276,9.81303886 17.093276,9.18471714 16.7212574,8.80099209 L16.7212574,8.80099209 Z" id="路径"></path>
                        </g>
                    </g>
                </g>
            </g>
        </g>
    </g>
</svg>