<?xml version="1.0" encoding="UTF-8"?>
<svg width="20px" height="20px" viewBox="0 0 20 20" version="1.1" xmlns="http://www.w3.org/2000/svg" xmlns:xlink="http://www.w3.org/1999/xlink">
    <title>个人</title>
    <g id="有光英语20230929✅" stroke="none" stroke-width="1" fill="none" fill-rule="evenodd">
        <g id="主菜单" transform="translate(-27.000000, -358.000000)">
            <rect fill="#F9F9F9" x="0" y="0" width="1920" height="1080"></rect>
            <g id="编组-7" fill="#EB912C" fill-rule="nonzero">
                <g id="编组-3" transform="translate(15.000000, 151.000000)">
                    <g id="个人-2" transform="translate(12.000000, 207.000000)">
                        <g id="编组" transform="translate(4.000000, 1.000000)">
                            <path d="M0.515530931,17.8795781 C-0.00967711506,17.5786773 0.00518726214,17.8315351 0.000232469742,9.14586819 C-0.00224492646,1.79023353 0.0126194507,1.01143138 0.166218032,0.682716168 C0.480847384,0.00758573442 0.52296312,0 5.05164391,0 L9.11209675,0 L14,5.26702886 L14,17.2954765 L13.7051898,17.6317774 L13.4103796,17.9706069 L7.08558641,17.9933641 C1.95985309,18.0135927 0.711245265,17.9908355 0.515530931,17.8795781 Z M12.9619709,11.6264036 L12.9892222,6.31891749 L10.9701441,6.31891749 C9.19137342,6.31891749 8.926292,6.29616029 8.74791945,6.13685985 C8.38869697,5.81573039 8.31932986,5.33782907 8.31932986,3.14302298 L8.31932986,1.03418858 L4.68994401,1.06200294 L1.06303556,1.0898173 L1.0357842,8.90818181 C1.02091982,13.2092937 1.03082941,16.7872322 1.05808077,16.8580324 C1.09771911,16.9617041 2.34384955,16.9819327 7.02117411,16.9617041 L12.9347195,16.9338897 L12.9619709,11.6264036 L12.9619709,11.6264036 Z M2.63618234,13.2573367 L2.63618234,12.7389781 L11.4656234,12.7389781 L11.4656234,13.7756953 L2.63618234,13.7756953 L2.63618234,13.2573367 Z M2.63618234,11.1889596 L2.63618234,10.670601 L11.475533,10.670601 L11.4135981,11.654218 L7.0261289,11.6820323 L2.63618234,11.7098467 L2.63618234,11.1889596 L2.63618234,11.1889596 Z M2.63618234,8.49349494 L2.63618234,7.97513637 L6.69415778,7.97513637 L6.69415778,9.01185353 L2.63618234,9.01185353 L2.63618234,8.49349494 Z M2.63618234,6.31891749 L2.63618234,5.80055892 L6.69415778,5.80055892 L6.69415778,6.83727608 L2.63618234,6.83727608 L2.63618234,6.31891749 Z M10.9404153,3.61333858 L9.38213295,1.94447682 L9.35240419,3.38070936 C9.31028846,5.47437231 9.14678029,5.28472891 10.9676667,5.28472891 L12.4986977,5.28472891 L10.9404153,3.61333858 L10.9404153,3.61333858 Z" id="形状"></path>
                        </g>
                    </g>
                </g>
            </g>
        </g>
    </g>
</svg>