<?xml version="1.0" standalone="no"?><!DOCTYPE svg PUBLIC "-//W3C//DTD SVG 1.1//EN" "http://www.w3.org/Graphics/SVG/1.1/DTD/svg11.dtd"><svg t="1699517108028" class="icon" viewBox="0 0 1024 1024" version="1.1" xmlns="http://www.w3.org/2000/svg" p-id="5509" xmlns:xlink="http://www.w3.org/1999/xlink" width="200" height="200"><path d="M512 0C230.4 0 0 230.4 0 512S230.4 1024 512 1024 1024 793.6 1024 512 793.6 0 512 0z" fill="#4D57FF" p-id="5510"></path><path d="M351.085714 263.314286m58.514286 0l0 0q58.514286 0 58.514286 58.514285l0 380.342858q0 58.514286-58.514286 58.514285l0 0q-58.514286 0-58.514286-58.514285l0-380.342858q0-58.514286 58.514286-58.514285Z" fill="#FFFFFF" p-id="5511"></path><path d="M555.885714 263.314286m58.514286 0l0 0q58.514286 0 58.514286 58.514285l0 380.342858q0 58.514286-58.514286 58.514285l0 0q-58.514286 0-58.514286-58.514285l0-380.342858q0-58.514286 58.514286-58.514285Z" fill="#FFFFFF" p-id="5512"></path></svg>