<?xml version="1.0" standalone="no"?><!DOCTYPE svg PUBLIC "-//W3C//DTD SVG 1.1//EN" "http://www.w3.org/Graphics/SVG/1.1/DTD/svg11.dtd"><svg t="1699857781826" class="icon" viewBox="0 0 1024 1024" version="1.1" xmlns="http://www.w3.org/2000/svg" p-id="5964" xmlns:xlink="http://www.w3.org/1999/xlink" width="200" height="200"><path d="M512.719503 515.670064m-128.764917 480.557211a497.509434 497.509434 0 1 0 257.529834-961.114423 497.509434 497.509434 0 1 0-257.529834 961.114423Z" fill="#4D57FF" p-id="5965"></path><path d="M188.785343 389.387593a29.531774 29.531774 0 0 0 16.812034 39.078776c15.523146 5.929619 33.235327-1.535831 39.584672-16.796494 34.20832-81.384398 103.20917-143.204979 189.203654-169.498542 126.123821-38.553605 259.898849 8.962658 330.39744 111.492388l3.858716 5.754486 3.58878 5.642153-1.460047 0.148844a31.183698 31.183698 0 0 0-18.898514 10.287937l-1.980646 2.539643-1.748216 2.791945a29.551094 29.551094 0 0 0 9.583685 39.032165l2.872935 1.669905 39.99055 20.50657a49.664 49.664 0 0 0 11.855539 4.276809l1.944241 0.320935 0.718144 0.492461a30.323925 30.323925 0 0 0 18.238588 4.006913l3.166726-0.471632 3.132929-0.830727a30.777962 30.777962 0 0 0 18.810864-16.082091l0.305836-0.76815 1.387994-1.298282c1.292852-1.353778 2.495561-2.781716 3.629292-4.288143l1.636863-2.301722 2.222193-3.665058 21.688774-39.363744c3.946973-7.153363 4.807506-15.403766 2.502294-22.96225a29.580075 29.580075 0 0 0-14.913597-17.647668 31.116075 31.116075 0 0 0-39.453099 9.810935l-1.458899 2.309402-0.332705-0.699219c-29.673256-56.286524-74.597719-102.908004-130.726256-135.55964l-8.50768-4.789917-8.268597-4.375814c-83.696345-42.89874-180.052739-51.165324-271.297453-23.268208-100.798342 30.817864-182.223796 102.130768-224.530894 196.346843l-3.546809 8.160691z m-43.282603 255.703427a29.560755 29.560755 0 0 0 12.454119 40.7114 31.116075 31.116075 0 0 0 39.453098-9.810935l0.605465-1.027904 0.138448 0.267124c29.630379 58.835332 75.712928 107.517323 133.845126 141.275904l8.387044 4.717588 8.164124 4.317817c83.696345 42.89874 180.06207 51.167825 271.297453 23.268208 53.87805-16.467 101.784944-44.055069 142.381894-82.022808 38.772661-36.086281 69.481236-81.044104 88.723322-129.864455a29.396528 29.396528 0 0 0 0.848503-19.514932 29.68634 29.68634 0 0 0-18.437575-19.201985 31.087094 31.087094 0 0 0-39.329296 17.635011c-33.386434 84.624972-103.168976 148.616375-191.690843 175.682895-128.912657 39.406524-265.505517-11.105034-334.702845-117.856621l-3.706736-5.873782-3.235535-5.467492 3.065063-0.278846c7.200452-1.080993 13.978871-4.655346 18.889183-10.290437l1.992478-2.546474 1.736383-2.785114c3.946973-7.153363 4.810006-15.413098 2.492963-22.964751a29.415849 29.415849 0 0 0-11.913196-15.893602l-2.99107-1.751565-39.860584-20.431741c-22.800661-11.690065-50.984217-4.000061-64.903675 17.043102l-2.080035 3.433118-21.613945 39.233777z" fill="#FFFFFF" p-id="5966"></path></svg>