<?xml version="1.0" standalone="no"?><!DOCTYPE svg PUBLIC "-//W3C//DTD SVG 1.1//EN" "http://www.w3.org/Graphics/SVG/1.1/DTD/svg11.dtd"><svg t="1701333661587" class="icon" viewBox="0 0 1024 1024" version="1.1" xmlns="http://www.w3.org/2000/svg" p-id="4361" xmlns:xlink="http://www.w3.org/1999/xlink" width="200" height="200"><path d="M14.5901 5.135964a32.05793 32.05793 0 0 1 35.169203 0.236299l960.005046 639.977109c9.885185 6.576996 15.320067 18.116275 14.020422 29.931237a31.821631 31.821631 0 0 1-19.927903 26.386748l-250.359045 100.190878-117.755788 205.974171a32.018547 32.018547 0 0 1-27.410711 16.147115h-0.354449a32.05793 32.05793 0 0 1-27.410712-15.556367l-66.478853-110.78496-310.221519 124.057101a32.018547 32.018547 0 0 1-43.439677-24.496355L0.490912 37.272661A32.05793 32.05793 0 0 1 14.5901 5.135964z m909.043176 659.668712L182.047494 170.466666l539.1561 577.160893c2.874974-1.693478 5.395499-3.938321 8.546156-5.198583l193.883526-77.584917z m-225.665774 105.271311l0.196916-0.315065L92.017484 121.001358l516.707672 805.110894 89.202963-156.036265zM217.019782 947.45795l273.319454-109.327782c6.380079-2.323609 13.114608-3.623255 19.927903-3.820171L89.418192 181.966562l127.60159 765.491388z" fill="#333333" p-id="4362"></path></svg>