<?xml version="1.0" encoding="UTF-8"?>
<svg width="34px" height="35px" viewBox="0 0 34 35" version="1.1" xmlns="http://www.w3.org/2000/svg" xmlns:xlink="http://www.w3.org/1999/xlink">
    <title>掌握词</title>
    <defs>
        <linearGradient x1="80.8578492%" y1="29.7828793%" x2="17.4497063%" y2="72.1131626%" id="linearGradient-1">
            <stop stop-color="#FFA48D" offset="0%"></stop>
            <stop stop-color="#FF5660" offset="100%"></stop>
        </linearGradient>
    </defs>
    <g id="有光英语20230929✅" stroke="none" stroke-width="1" fill="none" fill-rule="evenodd">
        <g id="首页-定稿-定稿" transform="translate(-1199.000000, -336.000000)" fill="url(#linearGradient-1)">
            <g id="编组-5" transform="translate(420.000000, 134.000000)">
                <g id="编组-8" transform="translate(387.399784, 127.078983)">
                    <g id="编组-11备份-2" transform="translate(391.600216, 1.921017)">
                        <g id="掌握词" transform="translate(0.000000, 73.000000)">
                            <g transform="translate(2.833333, 3.000000)" id="形状结合">
                                <path d="M1.26115566,10.9547854 C1.31261933,10.9547854 1.36323265,10.9585767 1.41318052,10.964679 L1.41318052,10.964679 L5.00861288,10.9564464 L5.00861288,27.9847265 L1.44819212,27.9833544 C1.38330795,27.9934284 1.31746256,28 1.24950981,28 C0.559593475,28 2.91322522e-13,27.4553877 2.91322522e-13,26.7831346 L2.91322522e-13,26.7831346 L0.0113131451,12.1716508 C0.0113131451,11.4993978 0.570869624,10.9547854 1.26115566,10.9547854 Z M16.1256157,-6.14619466e-13 C17.8509796,-6.14619466e-13 19.2923691,1.17176689 19.6645194,2.74194605 L19.6645194,2.74194605 L19.6830049,2.73949072 C19.8878244,3.6359003 19.9991811,4.56646781 19.9991811,5.52285229 C19.9991811,6.99712942 19.7407167,8.41229827 19.2679682,9.72936252 L19.2679682,9.72936252 L26.2425894,9.73669237 C26.3067711,9.73669237 26.3691782,9.74308343 26.4311416,9.75211037 C27.6219044,9.79775049 28.7688566,10.3948634 29.4444282,11.4556713 C29.8745121,12.1302353 30.045688,12.8879913 29.9897138,13.623144 C30.0010639,13.7576813 29.9908968,13.8958293 29.9531864,14.0337246 L29.9531864,14.0337246 L27.2531554,25.6422759 C27.215297,25.7811822 27.1527051,25.9075231 27.0734022,26.0197097 C26.7842888,26.5821592 26.3445184,27.0796149 25.7596738,27.4417751 C25.1439583,27.8230001 24.4559644,28.0008666 23.7766218,27.9998241 L23.7766218,27.9998241 L23.7766218,27.9924535 L7.49838965,27.9857736 L7.49838965,10.5401247 C10.3534033,9.56449479 12.4181612,6.95470291 12.5069656,3.86081515 C12.4971313,3.75530846 12.4902547,3.648863 12.4902547,3.54064823 C12.4902547,1.5853805 14.1177932,-6.14619466e-13 16.1256157,-6.14619466e-13 Z"></path>
                            </g>
                        </g>
                    </g>
                </g>
            </g>
        </g>
    </g>
</svg>