<?xml version="1.0" encoding="UTF-8"?>
<svg width="27px" height="28px" viewBox="0 0 27 28" version="1.1" xmlns="http://www.w3.org/2000/svg" xmlns:xlink="http://www.w3.org/1999/xlink">
    <title>生词+</title>
    <defs>
        <linearGradient x1="69.9257476%" y1="26.7915707%" x2="28.9813952%" y2="75.3850081%" id="linearGradient-1">
            <stop stop-color="#56B9FF" offset="0%"></stop>
            <stop stop-color="#5478FA" offset="100%"></stop>
        </linearGradient>
    </defs>
    <g id="场景英语web端20230929✅" stroke="none" stroke-width="1" fill="none" fill-rule="evenodd">
        <g id="关注点" transform="translate(-293.000000, -159.000000)">
            <g id="生词" transform="translate(293.000000, 159.000000)">
                <g transform="translate(2.250000, 0.000000)">
                    <path d="M3.97058824,0 L18.5294118,0 C20.7223071,0 22.5,1.84409037 22.5,4.11889111 L22.5,26.6264788 C22.5,27.1394303 22.2241227,27.6095321 21.7850068,27.8453784 C21.3458909,28.0812248 20.8166597,28.0434767 20.4127941,27.7475036 L12.7806618,22.1567954 C11.8655642,21.486293 10.6426571,21.4860181 9.72727941,22.156109 L2.08654412,27.7488766 C1.68259434,28.044527 1.15347855,28.0819934 0.714547202,27.846027 C0.275615854,27.6100607 0,27.140002 0,26.6271653 L0,4.11889111 C0,1.84409037 1.77769291,0 3.97058824,0 Z" id="路径" fill="url(#linearGradient-1)"></path>
                    <path d="M17.1927339,16.3091573 L17.1927339,14.9971266 L12.4089794,14.9971266 L12.4089794,12.2469084 L16.1408089,12.2469084 L16.1408089,10.9727247 L12.4089794,10.9727247 L12.4089794,8.5000514 L16.3787443,8.5000514 L16.3787443,7.22586772 L12.4089794,7.22586772 L12.4089794,5.1568962 L11.094073,5.1568962 L11.094073,7.22586772 L8.91508537,7.22586772 C9.06536038,6.74647188 9.19058956,6.229229 9.30329582,5.68675476 L7.96334363,5.43444116 C7.57513318,7.44033428 6.82375812,9.02990996 5.69669553,10.2157839 L6.56077685,11.313348 C7.32467483,10.5564072 7.95082071,9.61023124 8.4392145,8.5000514 L11.094073,8.5000514 L11.094073,10.9727247 L7.56261026,10.9727247 L7.56261026,12.2469084 L11.094073,12.2469084 L11.094073,14.9971266 L6.04733723,14.9971266 L6.04733723,16.3091573 L17.1927339,16.3091573 Z" id="生" fill="#FFFFFF" fill-rule="nonzero"></path>
                    <g id="guanzhu" transform="translate(13.157407, 15.407407)" fill-rule="nonzero">
                        <path d="M9.81226036,3.1763579 C9.55603288,2.54449163 9.17965569,1.97767158 8.69358681,1.49160163 C8.20751794,1.00553169 7.6406655,0.629142459 7.00881184,0.372914421 C6.39861404,0.125463074 5.75388119,0 5.09255896,0 C4.43122551,0 3.78651508,0.125463074 3.17631728,0.372914421 C2.54446362,0.629142459 1.9776336,1.00553169 1.49156472,1.49160163 C1.00549585,1.97767158 0.629129869,2.54450284 0.372902384,3.1763579 C0.125462798,3.78655705 0,4.43126889 0,5.09259259 C0,5.7539275 0.125462798,6.39862814 0.3729136,7.00883849 C0.629141074,7.64069354 1.00550707,8.20752481 1.49157594,8.69359476 C1.97764481,9.1796647 2.54447483,9.55603151 3.1763285,9.81227076 C3.7865263,10.0597109 4.43124794,10.1851852 5.09257018,10.1851852 C5.75389241,10.1851852 6.39861405,10.0597221 7.00881185,9.81227076 C7.64067673,9.55604273 8.20751795,9.1796647 8.69360925,8.69359476 C9.17966691,8.20753602 9.55603289,7.64069355 9.81227158,7.00883849 C10.0597112,6.39863934 10.1851852,5.7539275 10.1851852,5.09259259 C10.1851852,4.43126889 10.0597,3.78655705 9.81226036,3.1763579 Z" id="路径" fill="#2577DB" opacity="0.513467478"></path>
                        <path d="M7.82347042,4.81738304 C7.82333578,4.81738304 7.82319153,4.81738304 7.82306651,4.81738304 L5.17692819,4.8233442 L5.18247719,2.1766078 C5.18267914,2.07927096 5.10379114,2.00021118 5.00628467,2 C5.00615003,2 5.00604424,2 5.00590961,2 C4.90857625,2 4.82956321,2.07866621 4.82936126,2.17586866 L4.82380265,4.82414095 L2.17616409,4.8301117 C2.07864801,4.83033249 1.99978885,4.90941147 2,5.0067483 C2.00022161,5.10395075 2.07922502,5.18258816 2.17654877,5.18258816 C2.1766834,5.18258816 2.17682766,5.18258816 2.17695268,5.18258816 L4.82305253,5.176627 L4.81750353,7.8234018 C4.81730158,7.92072904 4.89618958,7.99979842 4.99369605,8 C4.99383069,8 4.99393648,8 4.99407112,8 C5.09139486,8 5.17041751,7.92133379 5.17061946,7.82413134 L5.17616846,5.17583025 L7.82383587,5.1698595 C7.92135195,5.16963871 8.00022073,5.09055973 8,4.9932229 C7.99979758,4.89602045 7.92080379,4.81738304 7.82347042,4.81738304 Z" id="路径" stroke="#FFFFFF" stroke-width="0.8160768" fill="#FFFFFF"></path>
                    </g>
                </g>
            </g>
        </g>
    </g>
</svg>