<?xml version="1.0" encoding="UTF-8"?>
<svg width="27px" height="28px" viewBox="0 0 27 28" version="1.1" xmlns="http://www.w3.org/2000/svg" xmlns:xlink="http://www.w3.org/1999/xlink">
    <title>掌握+</title>
    <defs>
        <linearGradient x1="69.9257476%" y1="26.7915707%" x2="28.9813952%" y2="75.3850081%" id="linearGradient-1">
            <stop stop-color="#EFC73A" offset="0%"></stop>
            <stop stop-color="#FFA73E" offset="100%"></stop>
        </linearGradient>
    </defs>
    <g id="场景英语web端20230929✅" stroke="none" stroke-width="1" fill="none" fill-rule="evenodd">
        <g id="关注点" transform="translate(-388.000000, -158.000000)">
            <g id="熟词" transform="translate(388.000000, 158.000000)">
                <path d="M6.22058824,0 L20.7794118,0 C22.9723071,0 24.75,1.84409037 24.75,4.11889111 L24.75,26.6264788 C24.75,27.1394303 24.4741227,27.6095321 24.0350068,27.8453784 C23.5958909,28.0812248 23.0666597,28.0434767 22.6627941,27.7475036 L15.0306618,22.1567954 C14.1155642,21.486293 12.8926571,21.4860181 11.9772794,22.156109 L4.33654412,27.7488766 C3.93259434,28.044527 3.40347855,28.0819934 2.9645472,27.846027 C2.52561585,27.6100607 2.25,27.140002 2.25,26.6271653 L2.25,4.11889111 C2.25,1.84409037 4.02769291,0 6.22058824,0 Z" id="路径" fill="url(#linearGradient-1)"></path>
                <text id="掌" font-family="PingFangSC-Medium, PingFang SC" font-size="12.8" font-weight="400" fill="#FFFFFF">
                    <tspan x="7.01470588" y="16.4">掌</tspan>
                </text>
                <g id="guanzhu-2" transform="translate(15.407407, 16.407407)" fill-rule="nonzero">
                    <g id="guanzhu">
                        <path d="M9.81226036,3.1763579 C9.55603288,2.54449163 9.17965569,1.97767158 8.69358681,1.49160163 C8.20751794,1.00553169 7.6406655,0.629142459 7.00881184,0.372914421 C6.39861404,0.125463074 5.75388119,0 5.09255896,0 C4.43122551,0 3.78651508,0.125463074 3.17631728,0.372914421 C2.54446362,0.629142459 1.9776336,1.00553169 1.49156472,1.49160163 C1.00549585,1.97767158 0.629129869,2.54450284 0.372902384,3.1763579 C0.125462798,3.78655705 0,4.43126889 0,5.09259259 C0,5.7539275 0.125462798,6.39862814 0.3729136,7.00883849 C0.629141074,7.64069354 1.00550707,8.20752481 1.49157594,8.69359476 C1.97764481,9.1796647 2.54447483,9.55603151 3.1763285,9.81227076 C3.7865263,10.0597109 4.43124794,10.1851852 5.09257018,10.1851852 C5.75389241,10.1851852 6.39861405,10.0597221 7.00881185,9.81227076 C7.64067673,9.55604273 8.20751795,9.1796647 8.69360925,8.69359476 C9.17966691,8.20753602 9.55603289,7.64069355 9.81227158,7.00883849 C10.0597112,6.39863934 10.1851852,5.7539275 10.1851852,5.09259259 C10.1851852,4.43126889 10.0597,3.78655705 9.81226036,3.1763579 Z" id="路径" fill="#CC7A19" opacity="0.513467478"></path>
                        <path d="M7.82347042,4.81738304 C7.82333578,4.81738304 7.82319153,4.81738304 7.82306651,4.81738304 L5.17692819,4.8233442 L5.18247719,2.1766078 C5.18267914,2.07927096 5.10379114,2.00021118 5.00628467,2 C5.00615003,2 5.00604424,2 5.00590961,2 C4.90857625,2 4.82956321,2.07866621 4.82936126,2.17586866 L4.82380265,4.82414095 L2.17616409,4.8301117 C2.07864801,4.83033249 1.99978885,4.90941147 2,5.0067483 C2.00022161,5.10395075 2.07922502,5.18258816 2.17654877,5.18258816 C2.1766834,5.18258816 2.17682766,5.18258816 2.17695268,5.18258816 L4.82305253,5.176627 L4.81750353,7.8234018 C4.81730158,7.92072904 4.89618958,7.99979842 4.99369605,8 C4.99383069,8 4.99393648,8 4.99407112,8 C5.09139486,8 5.17041751,7.92133379 5.17061946,7.82413134 L5.17616846,5.17583025 L7.82383587,5.1698595 C7.92135195,5.16963871 8.00022073,5.09055973 8,4.9932229 C7.99979758,4.89602045 7.92080379,4.81738304 7.82347042,4.81738304 Z" id="路径" stroke="#FFFFFF" stroke-width="0.8160768" fill="#FFFFFF"></path>
                    </g>
                </g>
            </g>
        </g>
    </g>
</svg>