<?xml version="1.0" encoding="UTF-8"?>
<svg width="27px" height="28px" viewBox="0 0 27 28" version="1.1" xmlns="http://www.w3.org/2000/svg" xmlns:xlink="http://www.w3.org/1999/xlink">
    <title>熟词+</title>
    <defs>
        <linearGradient x1="69.9257476%" y1="26.7915707%" x2="28.9813952%" y2="75.3850081%" id="linearGradient-1">
            <stop stop-color="#FFA48D" offset="0%"></stop>
            <stop stop-color="#FF5660" offset="100%"></stop>
        </linearGradient>
    </defs>
    <g id="场景英语web端20230929✅" stroke="none" stroke-width="1" fill="none" fill-rule="evenodd">
        <g id="关注点" transform="translate(-341.000000, -158.000000)">
            <g id="熟词" transform="translate(341.000000, 158.000000)">
                <g transform="translate(2.250000, 0.000000)">
                    <path d="M3.97058824,0 L18.5294118,0 C20.7223071,0 22.5,1.84409037 22.5,4.11889111 L22.5,26.6264788 C22.5,27.1394303 22.2241227,27.6095321 21.7850068,27.8453784 C21.3458909,28.0812248 20.8166597,28.0434767 20.4127941,27.7475036 L12.7806618,22.1567954 C11.8655642,21.486293 10.6426571,21.4860181 9.72727941,22.156109 L2.08654412,27.7488766 C1.68259434,28.044527 1.15347855,28.0819934 0.714547202,27.846027 C0.275615854,27.6100607 0,27.140002 0,26.6271653 L0,4.11889111 C0,1.84409037 1.77769291,0 3.97058824,0 Z" id="路径" fill="url(#linearGradient-1)"></path>
                    <path d="M11.6450814,6.77170324 L11.6450814,5.73721748 L9.24068123,5.73721748 C9.14049789,5.48490388 9.05283746,5.24520596 8.96517704,5.0307394 L7.63774777,5.25782164 C7.72540819,5.39659412 7.81306862,5.56059796 7.90072904,5.73721748 L5.78435596,5.73721748 L5.78435596,6.77170324 L11.6450814,6.77170324 Z M11.6325585,14.0257192 C12.2837502,13.4580136 12.8097128,12.7515356 13.222969,11.9189007 C13.4483816,12.2469084 13.6737941,12.6001474 13.8992066,12.9786178 L14.8384254,12.0576732 C14.4752608,11.5151989 14.1120962,11.0231874 13.7364087,10.5816386 C13.9618212,9.79946644 14.0995733,8.9416002 14.1621879,7.9954242 L14.8634713,7.9954242 C14.8133796,8.73974932 14.7883337,9.383149 14.7883337,9.93823892 C14.7883337,10.7708738 14.8509483,11.5025832 14.9761775,12.1081359 C15.1014067,12.6379944 15.2892505,13.0164648 15.514663,13.2435471 C15.7651213,13.4958607 16.0281026,13.6220175 16.3036068,13.6220175 C16.579111,13.5967861 16.7920006,13.4580136 16.9547985,13.2309314 C17.1551652,12.9029237 17.3179631,12.2847554 17.4431923,11.3764264 L16.4538818,10.922262 C16.428836,11.3259637 16.4037901,11.6161244 16.3536985,11.8179752 C16.3286526,12.0198261 16.266038,12.1459829 16.1909005,12.18383 C16.1282859,12.1585986 16.0656713,11.9567477 16.0155797,11.5782773 C15.9780109,11.1998069 15.965488,10.6573327 15.965488,9.93823892 C15.965488,8.95421588 16.0281026,7.88188308 16.1533318,6.74647188 L14.1872337,6.74647188 L14.1872337,5.05597076 L12.9349419,5.05597076 L12.9349419,6.74647188 L11.7327418,6.74647188 L11.7327418,7.9954242 L12.8973732,7.9954242 C12.8598044,8.52528276 12.7971898,9.01729428 12.6970065,9.49669012 C12.471594,9.29483924 12.2461815,9.10560404 12.008246,8.92898452 L11.2693939,9.78685076 C11.6200356,10.0896271 11.9706773,10.4302504 12.3087961,10.7961052 C11.9456314,11.7548968 11.3946231,12.537069 10.6557709,13.1552373 L11.6325585,14.0257192 Z M11.0314585,9.35791764 L11.0314585,7.13755796 L6.46059351,7.13755796 L6.46059351,9.35791764 L11.0314585,9.35791764 Z M9.85430419,8.52528276 L7.62522485,8.52528276 L7.62522485,7.94496148 L9.85430419,7.94496148 L9.85430419,8.52528276 Z M8.21380198,14.0509506 C9.0778833,14.0509506 9.51618542,13.7229429 9.51618542,13.0669276 L9.51618542,12.3226024 C10.192423,12.2469084 10.7434313,12.18383 11.1692105,12.1081359 L11.1692105,11.1367285 C10.6933397,11.2124226 10.1423313,11.2881167 9.51618542,11.3511951 L9.51618542,11.1871912 L10.7684772,10.5311759 L10.7684772,9.71115668 L6.34788725,9.71115668 L6.34788725,10.6951797 L9.10292913,10.6951797 L8.27641657,11.0862658 L8.27641657,11.4647362 C7.52504151,11.5151989 6.68600603,11.5656616 5.77183304,11.6035087 L5.93463097,12.6001474 C6.79871229,12.5496847 7.57513318,12.4866063 8.27641657,12.4361436 L8.27641657,12.7641512 C8.27641657,12.9660021 8.11361864,13.0669276 7.81306862,13.0669276 C7.61270193,13.0669276 7.32467483,13.0290805 6.9489873,12.9660021 L7.26206024,14.0509506 L8.21380198,14.0509506 Z M15.9780109,16.7885532 L17.0675048,16.0189967 C16.6792943,15.3503656 16.1282859,14.5681935 15.4270025,13.6724802 L14.3249858,14.3663426 C15.0262692,15.2494402 15.5772776,16.0568437 15.9780109,16.7885532 Z M12.5342086,16.7507061 L13.8491149,16.4479298 C13.6237024,15.5900636 13.3732441,14.78266 13.0977399,14.0383349 L11.857971,14.2906485 C12.1334752,14.9971266 12.3588877,15.8171458 12.5342086,16.7507061 Z M6.77366645,16.7128591 C7.41233525,16.1325378 7.97586655,15.4512911 8.45173742,14.6565032 L7.36224358,14.114029 C6.88637271,14.8205071 6.33536433,15.413444 5.69669553,15.9180712 L6.77366645,16.7128591 Z M9.67898335,16.7759375 L10.9813668,16.4605455 C10.8185689,15.6405263 10.643248,14.8709698 10.4428813,14.1644917 L9.20311248,14.4168053 C9.39095624,15.098052 9.55375417,15.8802242 9.67898335,16.7759375 Z" id="熟" fill="#FFFFFF" fill-rule="nonzero"></path>
                    <g id="guanzhu-2" transform="translate(13.157407, 16.407407)" fill-rule="nonzero">
                        <g id="guanzhu">
                            <path d="M9.81226036,3.1763579 C9.55603288,2.54449163 9.17965569,1.97767158 8.69358681,1.49160163 C8.20751794,1.00553169 7.6406655,0.629142459 7.00881184,0.372914421 C6.39861404,0.125463074 5.75388119,0 5.09255896,0 C4.43122551,0 3.78651508,0.125463074 3.17631728,0.372914421 C2.54446362,0.629142459 1.9776336,1.00553169 1.49156472,1.49160163 C1.00549585,1.97767158 0.629129869,2.54450284 0.372902384,3.1763579 C0.125462798,3.78655705 0,4.43126889 0,5.09259259 C0,5.7539275 0.125462798,6.39862814 0.3729136,7.00883849 C0.629141074,7.64069354 1.00550707,8.20752481 1.49157594,8.69359476 C1.97764481,9.1796647 2.54447483,9.55603151 3.1763285,9.81227076 C3.7865263,10.0597109 4.43124794,10.1851852 5.09257018,10.1851852 C5.75389241,10.1851852 6.39861405,10.0597221 7.00881185,9.81227076 C7.64067673,9.55604273 8.20751795,9.1796647 8.69360925,8.69359476 C9.17966691,8.20753602 9.55603289,7.64069355 9.81227158,7.00883849 C10.0597112,6.39863934 10.1851852,5.7539275 10.1851852,5.09259259 C10.1851852,4.43126889 10.0597,3.78655705 9.81226036,3.1763579 Z" id="路径" fill="#E03842" opacity="0.513467478"></path>
                            <path d="M7.82347042,4.81738304 C7.82333578,4.81738304 7.82319153,4.81738304 7.82306651,4.81738304 L5.17692819,4.8233442 L5.18247719,2.1766078 C5.18267914,2.07927096 5.10379114,2.00021118 5.00628467,2 C5.00615003,2 5.00604424,2 5.00590961,2 C4.90857625,2 4.82956321,2.07866621 4.82936126,2.17586866 L4.82380265,4.82414095 L2.17616409,4.8301117 C2.07864801,4.83033249 1.99978885,4.90941147 2,5.0067483 C2.00022161,5.10395075 2.07922502,5.18258816 2.17654877,5.18258816 C2.1766834,5.18258816 2.17682766,5.18258816 2.17695268,5.18258816 L4.82305253,5.176627 L4.81750353,7.8234018 C4.81730158,7.92072904 4.89618958,7.99979842 4.99369605,8 C4.99383069,8 4.99393648,8 4.99407112,8 C5.09139486,8 5.17041751,7.92133379 5.17061946,7.82413134 L5.17616846,5.17583025 L7.82383587,5.1698595 C7.92135195,5.16963871 8.00022073,5.09055973 8,4.9932229 C7.99979758,4.89602045 7.92080379,4.81738304 7.82347042,4.81738304 Z" id="路径" stroke="#FFFFFF" stroke-width="0.8160768" fill="#FFFFFF"></path>
                        </g>
                    </g>
                </g>
            </g>
        </g>
    </g>
</svg>