<?xml version="1.0" encoding="UTF-8"?>
<svg width="48px" height="48px" viewBox="0 0 48 48" version="1.1" xmlns="http://www.w3.org/2000/svg" xmlns:xlink="http://www.w3.org/1999/xlink">
    <title>日历</title>
    <defs>
        <linearGradient x1="79.5854986%" y1="26.7915707%" x2="18.7918408%" y2="75.3850081%" id="linearGradient-1">
            <stop stop-color="#EFC73A" offset="0%"></stop>
            <stop stop-color="#FFA73E" offset="100%"></stop>
        </linearGradient>
    </defs>
    <g id="有光英语20230929✅" stroke="none" stroke-width="1" fill="none" fill-rule="evenodd">
        <g id="首页" transform="translate(-764.000000, -156.000000)" fill="url(#linearGradient-1)">
            <g id="编组-11" transform="translate(612.000000, 132.000000)">
                <g id="编组-4" transform="translate(152.000000, 22.000000)">
                    <g id="日历" transform="translate(0.000000, 2.000000)">
                        <path d="M47,20.6256665 L47,40.4322787 C47,44.5308965 43.7530645,47.8668663 39.6967605,47.9961128 L39.4524305,48 L7.54756948,48 C3.45986578,48 0.132779216,44.7443953 0.00387682208,40.677261 L-4.58257408e-13,40.4322787 L-4.58257408e-13,20.6256665 L47,20.6256665 Z M40.4990495,35.9957341 L33.7640989,35.9957341 L33.7640989,42.7486669 L40.4990495,42.7486669 L40.4990495,35.9957341 Z M13.2316466,35.9957341 L6.49669594,35.9957341 L6.49669594,42.7486669 L13.2316466,42.7486669 L13.2316466,35.9957341 Z M26.8674753,35.9957341 L20.1325247,35.9957341 L20.1325247,42.7486669 L26.8674753,42.7486669 L26.8674753,35.9957341 Z M26.8674753,24.8318521 L20.1325247,24.8318521 L20.1325247,31.5847849 L26.8674753,31.5847849 L26.8674753,24.8318521 Z M40.4990495,24.8318521 L33.7640989,24.8318521 L33.7640989,31.5847849 L40.4990495,31.5847849 L40.4990495,24.8318521 Z M13.2316466,24.8318521 L6.49669594,24.8318521 L6.49669594,31.5847849 L13.2316466,31.5847849 L13.2316466,24.8318521 Z M-4.5115198e-13,16.8418059 L-4.5115198e-13,10.9121934 C-4.5115198e-13,6.83825098 3.2121843,3.51510843 7.23698742,3.35300391 L7.23698742,3.35300391 L7.23698742,8.3953075 C7.23698742,10.45949 9.25729251,12.150623 11.3155427,12.2512204 L11.5085544,12.2559545 L11.7012023,12.2512204 L11.7012023,12.2512204 C11.8318227,12.2448541 11.9619275,12.2321176 12.0913778,12.2133197 C12.2061948,12.1964501 12.3202793,12.1749948 12.4335183,12.1489935 C12.4474322,12.1461164 12.4607383,12.1430011 12.4740318,12.1398234 L12.4335183,12.1489935 C12.496491,12.1345341 12.5592022,12.1186688 12.6215915,12.1014345 L12.4740318,12.1398234 C12.5357976,12.125059 12.5972936,12.1089472 12.6584628,12.091523 L12.6215915,12.1014345 C12.810408,12.0492763 12.9962754,11.9845796 13.1775161,11.9083688 C13.1918657,11.9031114 13.2055108,11.8973031 13.2191287,11.8914298 L13.1775161,11.9083688 C13.2467943,11.8792377 13.3153965,11.8484242 13.383229,11.8159856 L13.5677574,11.722726 C13.6117724,11.6992598 13.6554108,11.6751014 13.6986453,11.6502674 L13.5682669,11.7234622 C13.6282933,11.6914849 13.6876159,11.6582203 13.7461657,11.6237106 L13.6986453,11.6502674 C13.7578426,11.6162643 13.8162827,11.5809947 13.8738952,11.5445015 L13.7461657,11.6237106 C13.8005708,11.5916437 13.8543087,11.5585019 13.9073239,11.524319 L13.8738952,11.5445015 C14.2115373,11.3306308 14.5207568,11.074734 14.7874175,10.7854424 C14.7912282,10.7827391 14.7942698,10.7794272 14.7973058,10.7761109 L14.7874175,10.7854424 C14.9132462,10.6489348 15.0295988,10.5049916 15.13499,10.3545195 C15.1445445,10.3422296 15.1532119,10.3296887 15.1618028,10.3171032 L15.13499,10.3545195 C15.2111574,10.2457716 15.2815996,10.1336136 15.3457558,10.0183879 C15.3554185,10.0022521 15.3644718,9.98567961 15.3733944,9.96904516 L15.3457558,10.0183879 C15.3737934,9.96803185 15.4006305,9.91708994 15.4262202,9.8655907 L15.3733944,9.96904516 C15.40081,9.9179346 15.4269923,9.86623885 15.451894,9.81398713 L15.4262202,9.8655907 C15.4546845,9.80830633 15.4816056,9.75033238 15.5069189,9.69170818 L15.451894,9.81398713 C15.4789548,9.75720483 15.5045031,9.69976596 15.528478,9.64170801 L15.5069189,9.69170818 C15.5749138,9.5342361 15.6313086,9.37207224 15.6748552,9.20597875 C15.689581,9.15044697 15.702706,9.09436682 15.7143445,9.03787432 C15.7195307,9.01214612 15.7244725,8.9866446 15.7291088,8.96106223 C15.7367062,8.9196255 15.7434804,8.87746545 15.7494156,8.8350995 L15.7291088,8.96106223 C15.762581,8.77636439 15.7801213,8.58745215 15.7801213,8.3953075 L15.7801213,8.3953075 L15.7801213,3.348738 L31.4921698,3.348738 L31.4921698,8.39104159 C31.4921698,10.327764 33.2790803,11.9360114 35.2021363,12.2047636 C35.3869144,12.2380622 35.575426,12.2516886 35.7637368,12.2516886 C37.882502,12.2516886 40.0353037,10.5197298 40.0353037,8.39104159 L40.0353037,8.39104159 L40.0353037,3.37006754 C43.9282158,3.67294703 46.9957455,6.93210096 46.9957455,10.9121934 L46.9957455,10.9121934 L46.9957455,16.8418059 L-4.5115198e-13,16.8418059 Z M36.5763432,0.187948705 L36.6069428,0.203334787 C36.6170491,0.208535021 36.627101,0.213825939 36.6370975,0.219206474 C36.6646778,0.234048483 36.691959,0.249646837 36.7187921,0.265910898 C36.7396402,0.278544306 36.7603767,0.291684665 36.7808277,0.305222272 C36.7969255,0.315882762 36.8125504,0.326579909 36.8279999,0.337509034 C36.8491236,0.352446271 36.8701906,0.368026482 36.8909078,0.38403852 C36.9101922,0.398943018 36.929179,0.414226211 36.9478519,0.429873013 C36.9610272,0.440913245 36.9740434,0.452132 36.9868996,0.463527919 C37.0098049,0.483834472 37.0321063,0.504609554 37.0538832,0.525921029 C37.0669906,0.538730098 37.0807936,0.552653826 37.094374,0.566794084 C37.1096185,0.582670123 37.1244646,0.598687246 37.1390268,0.614965125 C37.1561073,0.634057633 37.172811,0.653525477 37.189111,0.673340103 C37.2033679,0.690670707 37.2173312,0.708286448 37.2309766,0.726159643 C37.244825,0.744299023 37.2583378,0.762692116 37.2715147,0.781341263 C37.284853,0.800216262 37.2979083,0.819447331 37.3106071,0.838934018 C37.3235079,0.858730661 37.3360442,0.878796961 37.3482026,0.899117518 C37.3609252,0.920379473 37.3732639,0.941974635 37.3851756,0.963838372 C37.3952952,0.982412796 37.4051067,1.00118106 37.4146031,1.0201363 C37.4258196,1.04253021 37.4365254,1.06502764 37.4467864,1.0877713 C37.455871,1.10790388 37.4646532,1.12834231 37.4730753,1.14896803 C37.4802773,1.16660188 37.4872645,1.1845029 37.4939797,1.20253782 C37.52061,1.27406582 37.5429472,1.34764457 37.5607005,1.42301525 C37.593114,1.56076651 37.6102109,1.70405299 37.6102109,1.85140419 L37.6102109,8.3953075 C37.6102109,9.38639918 36.8302658,10.1960927 35.8487757,10.240525 L35.9211551,10.2296481 C35.8701005,10.233914 35.8190459,10.2467117 35.7637368,10.2467117 C34.7912685,10.2467117 33.9963142,9.49606661 33.9228095,8.54016413 L33.9172626,8.3953075 L33.9172626,1.85140419 C33.9172626,0.827586207 34.7426451,-2.58092089e-13 35.7637368,-2.58092089e-13 C35.9132356,-1.09766293e-13 36.0585392,0.0177402399 36.1976714,0.0512392266 C36.2199388,0.0566056756 36.2416656,0.0622683769 36.2632319,0.0683130966 C36.2868097,0.0749189895 36.3103706,0.0820382023 36.3337267,0.0896106128 C36.3548747,0.0964649264 36.3760139,0.103748898 36.3969749,0.111402295 C36.4234976,0.121086282 36.4497444,0.131365726 36.4756897,0.142221221 C36.4849219,0.14608474 36.4939926,0.149967226 36.5030255,0.153920013 L36.4756897,0.142221221 C36.509773,0.156481616 36.5433361,0.171736098 36.5763432,0.187948705 Z M11.5085544,-2.59868446e-13 C12.5296461,-2.59868446e-13 13.3550285,0.827586207 13.3550285,1.85140419 L13.3550285,8.3953075 C13.3550285,9.41485958 12.5296461,10.2424458 11.5085544,10.2424458 C10.4874627,10.2424458 9.6620802,9.41485958 9.6620802,8.39104159 L9.6620802,1.85140419 C9.6620802,0.827586207 10.4874627,-2.59868446e-13 11.5085544,-2.59868446e-13 Z" id="形状结合"></path>
                    </g>
                </g>
            </g>
        </g>
    </g>
</svg>