<?xml version="1.0" encoding="UTF-8"?>
<svg width="48px" height="48px" viewBox="0 0 48 48" version="1.1" xmlns="http://www.w3.org/2000/svg" xmlns:xlink="http://www.w3.org/1999/xlink">
    <title>学习笔记</title>
    <defs>
        <linearGradient x1="71.4290619%" y1="26.7915707%" x2="27.3956294%" y2="75.3850081%" id="linearGradient-1">
            <stop stop-color="#FC9C62" offset="0%"></stop>
            <stop stop-color="#EE6841" offset="100%"></stop>
        </linearGradient>
    </defs>
    <g id="有光英语20230929✅" stroke="none" stroke-width="1" fill="none" fill-rule="evenodd">
        <g id="首页" transform="translate(-1533.000000, -156.000000)">
            <rect fill="#F9F9F9" x="0" y="0" width="1920" height="1080"></rect>
            <g id="编组-11" transform="translate(612.000000, 132.000000)">
                <g id="编组-4" transform="translate(152.000000, 22.000000)">
                    <g id="1备份-3" transform="translate(769.000000, 0.000000)">
                        <g id="学习笔记-2" transform="translate(0.000000, 2.000000)">
                            <g id="学习笔记" transform="translate(4.000000, 0.000000)">
                                <path d="M30,0 L28,0 L4,0 C1.6,0 0,1.6 0,4 L0,44 C0,46.4 1.6,48 4,48 L36,48 C38.4,48 40,46.4 40,44 L40,12 L40,10 L30,0 Z M32.8,10 C31.2,10 29.6,8.8 29.6,6.8 L29.6,2 L37.6,10 L32.8,10 Z" id="形状" fill="url(#linearGradient-1)"></path>
                                <g id="编组-24" transform="translate(1.882353, 16.800000)" fill="#FFFFFF">
                                    <path d="M6.37647059,0 L22.8,0 C23.4627417,-1.68651412e-15 24,0.5372583 24,1.2 C24,1.8627417 23.4627417,2.4 22.8,2.4 L6.37647059,2.4 C5.71372889,2.4 5.17647059,1.8627417 5.17647059,1.2 C5.17647059,0.5372583 5.71372889,1.21743675e-16 6.37647059,0 Z" id="矩形"></path>
                                    <path d="M6.37647059,9.6 L29.8588235,9.6 C30.5215652,9.6 31.0588235,10.1372583 31.0588235,10.8 C31.0588235,11.4627417 30.5215652,12 29.8588235,12 L6.37647059,12 C5.71372889,12 5.17647059,11.4627417 5.17647059,10.8 C5.17647059,10.1372583 5.71372889,9.6 6.37647059,9.6 Z" id="矩形"></path>
                                    <path d="M6.37647059,19.2 L29.8588235,19.2 C30.5215652,19.2 31.0588235,19.7372583 31.0588235,20.4 C31.0588235,21.0627417 30.5215652,21.6 29.8588235,21.6 L6.37647059,21.6 C5.71372889,21.6 5.17647059,21.0627417 5.17647059,20.4 C5.17647059,19.7372583 5.71372889,19.2 6.37647059,19.2 Z" id="矩形"></path>
                                </g>
                            </g>
                        </g>
                    </g>
                </g>
            </g>
        </g>
    </g>
</svg>