<?xml version="1.0" encoding="UTF-8"?>
<svg width="48px" height="48px" viewBox="0 0 48 48" version="1.1" xmlns="http://www.w3.org/2000/svg" xmlns:xlink="http://www.w3.org/1999/xlink">
    <title>关注点</title>
    <defs>
        <linearGradient x1="71.4290619%" y1="26.7915707%" x2="27.3956294%" y2="75.3850081%" id="linearGradient-1">
            <stop stop-color="#52D86C" offset="0%"></stop>
            <stop stop-color="#33B16A" offset="100%"></stop>
        </linearGradient>
    </defs>
    <g id="有光英语20230929✅" stroke="none" stroke-width="1" fill="none" fill-rule="evenodd">
        <g id="首页" transform="translate(-1164.000000, -156.000000)">
            <g id="编组-11" transform="translate(612.000000, 132.000000)">
                <g id="编组-4" transform="translate(152.000000, 22.000000)">
                    <g id="1备份" transform="translate(400.000000, 0.000000)">
                        <g id="关注点-2" transform="translate(0.000000, 2.000000)">
                            <g id="关注点" transform="translate(4.000000, 0.000000)">
                                <path d="M7.05882353,0 L32.9411765,0 C36.8396571,0 40,3.16129777 40,7.06095619 L40,45.6453922 C40,46.5247377 39.5095515,47.3306265 38.728901,47.7349345 C37.9482505,48.1392425 37.0073951,48.0745315 36.2894118,47.5671491 L22.7211765,37.9830779 C21.0943364,36.8336452 18.9202792,36.8331739 17.2929412,37.9819011 L3.70941176,47.5695028 C2.99127883,48.076332 2.05062853,48.1405602 1.27030614,47.7360464 C0.48998374,47.3315326 0,46.5257177 0,45.646569 L0,7.06095619 C0,3.16129777 3.16034294,0 7.05882353,0 Z" id="路径" fill="url(#linearGradient-1)"></path>
                                <path d="M20,8.23778223 C20.9746201,8.23778223 21.7647059,9.02810667 21.7647059,10.0030213 L21.7647059,18.2408035 L30,18.2408035 C30.9746201,18.2408035 31.7647059,19.0311279 31.7647059,20.0060425 C31.7647059,20.9809572 30.9746201,21.7712816 30,21.7712816 L21.7647059,21.7712816 L21.7647059,30.0090638 C21.7647058,30.9839784 20.9746201,31.7743028 20,31.7743028 C19.0253799,31.7743028 18.2352941,30.9839784 18.2352941,30.0090638 L18.2352941,21.7712816 L10,21.7712816 C9.02537985,21.7712816 8.23529412,20.9809572 8.23529412,20.0060425 C8.23529412,19.0311279 9.02537985,18.2408035 10,18.2408035 L18.2352941,18.2408035 L18.2352941,10.0030213 C18.2352941,9.53485077 18.421218,9.08585531 18.7521645,8.75480877 C19.0831111,8.42376223 19.5319709,8.23778223 20,8.23778223 Z" id="路径" fill="#FFFFFF" fill-rule="nonzero"></path>
                            </g>
                        </g>
                    </g>
                </g>
            </g>
        </g>
    </g>
</svg>