<?xml version="1.0" encoding="UTF-8"?>
<svg width="35px" height="36px" viewBox="0 0 35 36" version="1.1" xmlns="http://www.w3.org/2000/svg" xmlns:xlink="http://www.w3.org/1999/xlink">
    <title>日历</title>
    <defs>
        <linearGradient x1="77.9190501%" y1="26.7915707%" x2="20.5496882%" y2="75.3850081%" id="linearGradient-1">
            <stop stop-color="#EFC73A" offset="0%"></stop>
            <stop stop-color="#FFA73E" offset="100%"></stop>
        </linearGradient>
    </defs>
    <g id="有光英语20230929✅" stroke="none" stroke-width="1" fill="none" fill-rule="evenodd">
        <g id="首页备份-2" transform="translate(-1307.000000, -337.000000)" fill="url(#linearGradient-1)">
            <g id="编组-5" transform="translate(420.000000, 134.000000)">
                <g id="编组-8" transform="translate(387.399784, 127.078983)">
                    <g id="h" transform="translate(483.600216, 0.000000)">
                        <g id="日历-2" transform="translate(16.445883, 76.000000)">
                            <g id="日历" transform="translate(-0.000000, 0.000000)">
                                <path d="M33.2916667,15.0395485 L33.2916667,29.4818699 C33.2916667,32.4558669 31.0141375,34.8791786 28.1605446,34.9956197 L27.9454716,35 L5.34619505,35 C2.46486244,35 0.117056826,32.6492248 0.00424378186,29.7038597 L-4.50116261e-13,29.4818699 L-4.50116261e-13,15.0395485 L33.2916667,15.0395485 Z M28.6868267,26.2468894 L23.9162367,26.2468894 L23.9162367,31.170903 L28.6868267,31.170903 L28.6868267,26.2468894 Z M9.37241634,26.2468894 L4.60182629,26.2468894 L4.60182629,31.170903 L9.37241634,31.170903 L9.37241634,26.2468894 Z M19.0311284,26.2468894 L14.2605383,26.2468894 L14.2605383,31.170903 L19.0311284,31.170903 L19.0311284,26.2468894 Z M19.0311284,18.1065588 L14.2605383,18.1065588 L14.2605383,23.0305723 L19.0311284,23.0305723 L19.0311284,18.1065588 Z M28.6868267,18.1065588 L23.9162367,18.1065588 L23.9162367,23.0305723 L28.6868267,23.0305723 L28.6868267,18.1065588 Z M9.37241634,18.1065588 L4.60182629,18.1065588 L4.60182629,23.0305723 L9.37241634,23.0305723 L9.37241634,18.1065588 Z M-4.46563547e-13,12.2804835 L-4.46563547e-13,7.95680768 C-4.46563547e-13,7.8977517 0.000899254339,7.83891208 0.00268440823,7.78030265 L-4.50116261e-13,7.95680768 C-4.50116261e-13,7.81626926 0.00509266255,7.67695618 0.0150980051,7.53905454 C0.0168058209,7.51550775 0.018669171,7.49185746 0.0206766127,7.46824976 C0.0312456822,7.34397129 0.0457994668,7.22092938 0.0642098447,7.09920453 C0.0786721551,7.00352258 0.0956228882,6.90813841 0.114917056,6.81364467 C0.123587325,6.77117311 0.13278096,6.72866276 0.142446884,6.6863404 L0.114917056,6.81364467 C0.127769765,6.75069816 0.14166237,6.68814678 0.156575468,6.62601059 C0.18426325,6.51060404 0.215613371,6.39616928 0.250386744,6.28330836 C0.262845811,6.24288611 0.275557687,6.20322528 0.288690971,6.16376651 C0.294230564,6.14711359 0.300141265,6.1296348 0.306134542,6.11219633 L0.288690971,6.16376651 C0.308328756,6.10476506 0.328908736,6.04621539 0.35041238,5.98813665 C0.388324746,5.88573981 0.429109133,5.78480479 0.472663195,5.68543873 C0.488617944,5.64904988 0.504682031,5.61343645 0.521101243,5.57803185 C0.531114297,5.55643399 0.54154494,5.53431864 0.552113998,5.51228656 C0.602569542,5.40713116 0.655943141,5.30429319 0.712317949,5.20346709 C0.729425371,5.17287108 0.746788003,5.14249655 0.764422832,5.11231046 C0.783910873,5.07895402 0.803660942,5.04594256 0.823736395,5.01316446 C0.844118747,4.97988339 0.864911415,4.94672624 0.886036961,4.91381648 C0.9008506,4.89073919 0.915848602,4.86775235 0.931009021,4.84488926 C0.95222324,4.81289808 0.973687316,4.78124746 0.995462757,4.74984246 C1.01445381,4.72245276 1.03370367,4.69521938 1.0531878,4.66817644 C1.07741973,4.63454277 1.10206314,4.60113866 1.12706434,4.56803647 C1.14821761,4.54002568 1.16982333,4.51198129 1.19168616,4.48416086 C1.20752261,4.46401234 1.22321156,4.44433056 1.23902934,4.42476358 C1.26561799,4.39187061 1.29268469,4.35916752 1.32011205,4.3267982 C1.34560035,4.29671352 1.37162704,4.26666078 1.39796537,4.23690686 C1.41646574,4.21600821 1.43504308,4.19534109 1.4537711,4.17482208 C1.47688107,4.1495034 1.50012,4.12451625 1.52358301,4.09975618 C1.55818589,4.06323754 1.59342851,4.02706075 1.62915174,3.99139352 C1.63850862,3.9820474 1.64868073,3.9719668 1.65889129,3.96192748 C1.69731089,3.92415745 1.73599492,3.88723094 1.77520237,3.85089398 C1.78966472,3.83748699 1.80470903,3.82369725 1.81982892,3.80999419 C1.85425283,3.77880414 1.88853193,3.74852518 1.92318261,3.71869041 C1.94455341,3.70028782 1.96628866,3.68186813 1.98816621,3.66362295 C2.02334981,3.63427975 2.05898834,3.60531914 2.09498841,3.5768207 C2.11168222,3.56360591 2.12839128,3.55053877 2.14517668,3.53757113 C2.1847284,3.50701638 2.22462653,3.47707048 2.26493622,3.44768588 C2.28140391,3.43568223 2.29779872,3.423873 2.31426035,3.41215658 C2.35338814,3.38430246 2.39328873,3.35670722 2.43356455,3.32965701 C2.45568332,3.31480523 2.47739019,3.30045924 2.49920343,3.28627155 C2.53482983,3.26309477 2.57116458,3.24007844 2.60778302,3.21750141 C2.62895732,3.20444759 2.65004546,3.19164878 2.67122556,3.1789957 C2.71469868,3.15302359 2.75864441,3.12761783 2.80296787,3.10283998 C2.82404966,3.09105736 2.84477611,3.07965537 2.86558337,3.06839076 C2.90348486,3.04786751 2.94205222,3.02759729 2.98088625,3.00779969 C3.00206181,2.99700719 3.02281575,2.98660213 3.04364423,2.97633216 C3.07782859,2.95947179 3.11276627,2.94271779 3.14790631,2.92634453 C3.18455461,2.90927297 3.22093836,2.89282787 3.25753108,2.87679169 C3.26918585,2.87168339 3.28112376,2.86650409 3.29308363,2.86136834 C3.34604261,2.83862878 3.39929165,2.81679819 3.45295327,2.79583363 C3.46998308,2.78918093 3.48692706,2.78266367 3.50391148,2.77623286 C3.55025729,2.75868344 3.59704422,2.74172919 3.64412379,2.72543305 C3.66991899,2.71650609 3.69549411,2.70787788 3.72115338,2.69944426 C3.76229634,2.68591788 3.80404941,2.67277323 3.84601607,2.66014553 C3.9491514,2.62912045 4.05320627,2.6013043 4.15844061,2.57669313 C4.26235824,2.55237667 4.36804532,2.53108043 4.47479702,2.51304871 C4.48820111,2.51078314 4.50214611,2.50848481 4.516109,2.50624227 C4.64557662,2.48546002 4.77614253,2.46951156 4.90806322,2.45850766 L5.12619942,2.44489868 L5.12619942,6.12157839 C5.12619942,7.6183123 6.54132189,8.84605832 7.99077159,8.93184536 L8.15189267,8.93663349 L8.31271351,8.93184536 C8.32303221,8.93123359 8.33334943,8.93056373 8.34366467,8.92983612 L8.31301375,8.93184536 C8.42097544,8.92545555 8.52874668,8.9127302 8.63575688,8.89403005 C8.65794924,8.89000973 8.68064449,8.88576092 8.70330096,8.8812454 L8.63575688,8.89403005 C8.74234021,8.8754045 8.84816856,8.85085173 8.95267813,8.82072818 C8.99141555,8.80922744 9.03024831,8.7971843 9.06887034,8.78438224 L8.95267813,8.82072818 C9.00747229,8.80493446 9.06190394,8.7876094 9.11589181,8.76880437 L9.06887034,8.78438224 C9.11964608,8.76755158 9.1700576,8.7494092 9.2200377,8.72999735 L9.11589181,8.76880437 C9.16657756,8.75114953 9.21687215,8.73219023 9.26670836,8.71196898 L9.2200377,8.72999735 C9.2669684,8.71176986 9.31351872,8.69242308 9.35963301,8.67199198 L9.26670836,8.71196898 C9.32241973,8.68936386 9.37755827,8.6651817 9.43203004,8.63948189 L9.35963301,8.67199198 C9.40774869,8.65067415 9.45538968,8.62817584 9.50249276,8.60453677 L9.43203004,8.63948189 C9.48026011,8.61672692 9.52796746,8.59278218 9.5750869,8.56768889 L9.50249276,8.60453677 C9.76013138,8.47523874 10.0016773,8.31181234 10.2167877,8.12075839 C10.2251851,8.11431017 10.2331637,8.1071526 10.241105,8.09995697 L10.2167877,8.12075839 C10.2553479,8.08651054 10.2930586,8.05137494 10.3298602,8.01538901 L10.241105,8.09995697 C10.2852949,8.05991628 10.3283291,8.01869706 10.3701159,7.97635731 L10.3298602,8.01538901 C10.3671008,7.97897385 10.4034106,7.94168797 10.4387278,7.90357017 L10.3701159,7.97635731 C10.4108309,7.93510352 10.4503616,7.89278595 10.4886232,7.84945826 L10.4387278,7.90357017 C10.4789654,7.86014171 10.5179146,7.81563337 10.5554841,7.77010253 L10.4886232,7.84945826 C10.5230092,7.81051942 10.55637,7.77076474 10.5886443,7.73023317 L10.5554841,7.77010253 C10.6257028,7.68500385 10.6911017,7.59633329 10.7510847,7.50446553 C10.7596044,7.49238824 10.7676927,7.47977607 10.7756784,7.46710513 L10.7510847,7.50446553 C10.7797473,7.46056683 10.8071734,7.41593808 10.8332977,7.37062018 L10.7756784,7.46710513 C10.8137269,7.40673332 10.8494458,7.34502757 10.8826715,7.2820913 L10.8332977,7.37062018 C10.8596403,7.32492374 10.8846593,7.27852658 10.9082881,7.2314706 L10.8826715,7.2820913 C10.9036985,7.24226171 10.9237271,7.20193929 10.9427156,7.16115024 L10.9082881,7.2314706 C10.9835274,7.08163429 11.044671,6.92511815 11.0895661,6.76327534 C11.100131,6.72574118 11.1098494,6.68711246 11.1186292,6.64820276 L11.0895661,6.76327534 C11.1243733,6.63779877 11.1494137,6.5091204 11.1636839,6.37787083 C11.1669761,6.34781178 11.1696977,6.31733613 11.1718325,6.28673086 L11.1775859,6.12157839 L11.1775859,2.44178813 L22.3069536,2.44178813 L22.3069536,6.11846783 C22.3069536,7.53066122 23.5726819,8.70334163 24.9348466,8.89930679 C25.0653101,8.9235557 25.1990498,8.93352293 25.3326469,8.93352293 C26.8334389,8.93352293 28.3583401,7.67063633 28.3583401,6.11846783 L28.3583401,6.11846783 L28.3583401,2.45734092 C31.1158195,2.67819054 33.288653,5.05465695 33.288653,7.95680768 L33.288653,7.95680768 L33.288653,12.2804835 L-4.46563547e-13,12.2804835 Z M25.3326469,0 C26.0559202,8.74855743e-14 26.6405661,0.603448276 26.6405661,1.34998223 L26.6405661,6.12157839 C26.6405661,6.84072956 26.0934734,7.42889657 25.403031,7.4665364 L25.4441515,7.45911838 C25.4079878,7.46222894 25.3718242,7.47156061 25.3326469,7.47156061 C24.6545782,7.47156061 24.0983499,6.94118615 24.0314701,6.25976432 L24.0247277,6.12157839 L24.0247277,1.34998223 C24.0247277,0.603448276 24.6093736,0 25.3326469,0 Z M8.15189267,-8.8817842e-16 C8.87516596,-8.8817842e-16 9.45981186,0.603448276 9.45981186,1.34998223 L9.45981186,6.12157839 C9.45981186,6.86500178 8.87516596,7.46845005 8.15189267,7.46845005 C7.42861938,7.46845005 6.84397348,6.86500178 6.84397348,6.11846783 L6.84397348,1.34998223 C6.84397348,0.603448276 7.42861938,-8.8817842e-16 8.15189267,-8.8817842e-16 Z" id="形状结合"></path>
                            </g>
                        </g>
                    </g>
                </g>
            </g>
        </g>
    </g>
</svg>