<?xml version="1.0" encoding="UTF-8"?>
<svg width="34px" height="35px" viewBox="0 0 34 35" version="1.1" xmlns="http://www.w3.org/2000/svg" xmlns:xlink="http://www.w3.org/1999/xlink">
    <title>熟词</title>
    <defs>
        <linearGradient x1="70.2220372%" y1="26.7915707%" x2="28.6688552%" y2="75.3850081%" id="linearGradient-1">
            <stop stop-color="#FFA48D" offset="0%"></stop>
            <stop stop-color="#FF5660" offset="100%"></stop>
        </linearGradient>
    </defs>
    <g id="场景英语web端20230929✅" stroke="none" stroke-width="1" fill="none" fill-rule="evenodd">
        <g id="首页-定稿-定稿" transform="translate(-1046.000000, -336.000000)">
            <g id="编组-5" transform="translate(420.000000, 134.000000)">
                <g id="编组-8" transform="translate(347.399784, 129.000000)">
                    <g id="编组-11备份" transform="translate(278.600216, 0.000000)">
                        <g id="熟词" transform="translate(0.000000, 73.000000)">
                            <g transform="translate(2.833333, 0.000000)">
                                <path d="M5,0 L23.3333333,0 C26.0947571,0 28.3333333,2.30511296 28.3333333,5.14861389 L28.3333333,33.2830985 C28.3333333,33.9242879 27.9859323,34.5119151 27.4329715,34.806723 C26.8800107,35.101531 26.2135715,35.0543459 25.705,34.6843796 L16.0941667,27.6959943 C14.9418216,26.8578663 13.4018645,26.8575226 12.2491667,27.6951362 L2.6275,34.6860958 C2.11882251,35.0556587 1.45252854,35.1024918 0.89980018,34.8075338 C0.347071816,34.5125758 0,33.9250025 0,33.2839566 L0,5.14861389 C0,2.30511296 2.23857625,0 5,0 Z" id="路径" fill="url(#linearGradient-1)"></path>
                                <path d="M14.6641766,8.46462905 L14.6641766,7.17152185 L11.6364134,7.17152185 C11.5102566,6.85612985 11.3998694,6.55650745 11.2894822,6.28842425 L9.6179046,6.57227705 C9.7282918,6.74574265 9.838679,6.95074745 9.9490662,7.17152185 L7.2840038,7.17152185 L7.2840038,8.46462905 L14.6641766,8.46462905 Z M14.648407,17.5321491 C15.4684262,16.8225171 16.1307494,15.9394195 16.6511462,14.8986259 C16.934999,15.3086355 17.2188518,15.7501843 17.5027046,16.2232723 L18.6854246,15.0720915 C18.2281062,14.3939987 17.7707878,13.7789843 17.2976998,13.2270483 C17.5815526,12.2493331 17.7550182,11.1770003 17.8338662,9.99428025 L18.7169638,9.99428025 C18.6538854,10.9246867 18.6223462,11.7289363 18.6223462,12.4227987 C18.6223462,13.4635923 18.7011942,14.3782291 18.8588902,15.1351699 C19.0165862,15.7974931 19.2531302,16.2705811 19.536983,16.5544339 C19.852375,16.8698259 20.1835366,17.0275219 20.5304678,17.0275219 C20.877399,16.9959827 21.1454822,16.8225171 21.350487,16.5386643 C21.6028006,16.1286547 21.8078054,15.3559443 21.9655014,14.2205331 L20.719703,13.6528275 C20.6881638,14.1574547 20.6566246,14.5201555 20.5935462,14.7724691 C20.562007,15.0247827 20.483159,15.1824787 20.3885414,15.2297875 C20.3096934,15.1982483 20.2308454,14.9459347 20.167767,14.4728467 C20.1204582,13.9997587 20.1046886,13.3216659 20.1046886,12.4227987 C20.1046886,11.1927699 20.1835366,9.85235385 20.3412326,8.43308985 L17.8654054,8.43308985 L17.8654054,6.31996345 L16.2884454,6.31996345 L16.2884454,8.43308985 L14.7745638,8.43308985 L14.7745638,9.99428025 L16.2411366,9.99428025 C16.1938278,10.6566035 16.1149798,11.2716179 15.988823,11.8708627 C15.7049702,11.6185491 15.4211174,11.3820051 15.121495,11.1612307 L14.1910886,12.2335635 C14.6326374,12.6120339 15.0741862,13.0378131 15.4999654,13.4951315 C15.042647,14.6936211 14.3487846,15.6713363 13.4183782,16.4440467 L14.648407,17.5321491 Z M13.8914662,11.6973971 L13.8914662,8.92194745 L8.1355622,8.92194745 L8.1355622,11.6973971 L13.8914662,11.6973971 Z M12.4091238,10.6566035 L9.602135,10.6566035 L9.602135,9.93120185 L12.4091238,9.93120185 L12.4091238,10.6566035 Z M10.3433062,17.5636883 C11.4314086,17.5636883 11.9833446,17.1536787 11.9833446,16.3336595 L11.9833446,15.4032531 C12.834903,15.3086355 13.5287654,15.2297875 14.0649318,15.1351699 L14.0649318,13.9209107 C13.465687,14.0155283 12.7718246,14.1101459 11.9833446,14.1889939 L11.9833446,13.9839891 L13.5603046,13.1639699 L13.5603046,12.1389459 L7.9936358,12.1389459 L7.9936358,13.3689747 L11.4629478,13.3689747 L10.4221542,13.8578323 L10.4221542,14.3309203 C9.4759782,14.3939987 8.419415,14.4570771 7.2682342,14.5043859 L7.473239,15.7501843 C8.5613414,15.6871059 9.5390566,15.6082579 10.4221542,15.5451795 L10.4221542,15.9551891 C10.4221542,16.2075027 10.2171494,16.3336595 9.838679,16.3336595 C9.5863654,16.3336595 9.2236646,16.2863507 8.7505766,16.2075027 L9.1448166,17.5636883 L10.3433062,17.5636883 Z M20.1204582,20.9856915 L21.4924134,20.0237459 C21.0035558,19.1879571 20.3096934,18.2102419 19.4265958,17.0906003 L18.038871,17.9579283 C18.9219686,19.0618003 19.615831,20.0710547 20.1204582,20.9856915 Z M15.7838182,20.9383827 L17.4396262,20.5599123 C17.1557734,19.4875795 16.8403814,18.4783251 16.4934502,17.5479187 L14.9322598,17.8633107 C15.279191,18.7464083 15.5630438,19.7714323 15.7838182,20.9383827 Z M8.5298022,20.8910739 C9.3340518,20.1656723 10.0436838,19.3141139 10.6429286,18.3206291 L9.2709734,17.6425363 C8.6717286,18.5256339 7.9778662,19.2668051 7.1736166,19.8975891 L8.5298022,20.8910739 Z M12.1883494,20.9699219 L13.8283878,20.5756819 C13.623383,19.5506579 13.4026086,18.5887123 13.150295,17.7056147 L11.5891046,18.0210067 C11.8256486,18.8725651 12.0306534,19.8502803 12.1883494,20.9699219 Z" id="熟" fill="#FFFFFF" fill-rule="nonzero"></path>
                            </g>
                        </g>
                    </g>
                </g>
            </g>
        </g>
    </g>
</svg>