<?xml version="1.0" encoding="UTF-8"?>
<svg width="22px" height="22px" viewBox="0 0 22 22" version="1.1" xmlns="http://www.w3.org/2000/svg" xmlns:xlink="http://www.w3.org/1999/xlink">
    <title>课件中心</title>
    <g id="有光英语20230929✅" stroke="none" stroke-width="1" fill="none" fill-rule="evenodd">
        <g id="首页" transform="translate(-1731.000000, -55.000000)">
            <g id="编组-3" transform="translate(1695.000000, 40.000000)">
                <g id="课件中心" transform="translate(36.000000, 15.000000)">
                    <path d="M18.3968756,20.2089666 L3.60312439,20.2089666 C1.80033036,20.2089666 0.338755284,18.7660119 0.338755284,16.9861853 L0.338755284,3.22278123 C0.338755284,1.44295469 1.80033036,0 3.60312439,0 L18.3968756,0 C20.1996696,0 21.6612447,1.44295469 21.6612447,3.22278123 L21.6612447,16.9861853 C21.6612447,18.7660119 20.1996696,20.2089666 18.3968756,20.2089666 L18.3968756,20.2089666 Z" id="路径" fill="#FFFFFF" fill-rule="nonzero"></path>
                    <path d="M3.60312439,22 C1.61647862,22 0,20.4041152 0,18.4427792 L0,3.70831252 C0,1.74697651 1.61647862,0.151091733 3.60312439,0.151091733 L18.3968756,0.151091733 C20.3835214,0.151091733 22,1.74697651 22,3.70831252 L22,18.4427792 C22,20.4041152 20.3838293,22 18.3968756,22 L3.60312439,22 Z" id="路径" fill="#FFFFFF"></path>
                    <path d="M15.4546388,9.73733157 L10.5479225,6.94050473 C9.50455624,6.34581038 8.20004044,7.08917831 8.20004044,8.27887104 L8.20004044,13.8725247 C8.20004044,15.0619134 9.50424828,15.8055854 10.5479225,15.210891 L15.4546388,12.4140642 C16.4980051,11.8190658 16.4980051,10.3320259 15.4546388,9.73733157 Z" id="路径" fill="#4D57FF" fill-rule="nonzero"></path>
                </g>
            </g>
        </g>
    </g>
</svg>