<?xml version="1.0" encoding="UTF-8"?>
<svg width="55px" height="28px" viewBox="0 0 55 28" version="1.1" xmlns="http://www.w3.org/2000/svg" xmlns:xlink="http://www.w3.org/1999/xlink">
    <title>置顶</title>
    <defs>
        <path d="M0,0 L51,0 L51,24 L10,24 C4.4771525,24 6.76353751e-16,19.5228475 0,14 L0,0 L0,0 Z" id="path-1"></path>
        <filter x="-7.8%" y="-8.3%" width="115.7%" height="133.3%" filterUnits="objectBoundingBox" id="filter-2">
            <feOffset dx="0" dy="2" in="SourceAlpha" result="shadowOffsetOuter1"></feOffset>
            <feGaussianBlur stdDeviation="1" in="shadowOffsetOuter1" result="shadowBlurOuter1"></feGaussianBlur>
            <feColorMatrix values="0 0 0 0 0   0 0 0 0 0   0 0 0 0 0  0 0 0 0.5 0" type="matrix" in="shadowBlurOuter1"></feColorMatrix>
        </filter>
    </defs>
    <g id="有光英语20230929✅" stroke="none" stroke-width="1" fill="none" fill-rule="evenodd">
        <g id="首页" transform="translate(-829.000000, -283.000000)">
            <g id="编组-3" transform="translate(653.000000, 283.000000)">
                <g id="矩形-5" transform="translate(176.000000, 0.000000)">
                    <g id="矩形-4" transform="translate(2.000000, 0.000000)">
                        <g id="矩形">
                            <use fill="black" fill-opacity="1" filter="url(#filter-2)" xlink:href="#path-1"></use>
                            <use fill="#FFD440" fill-rule="evenodd" xlink:href="#path-1"></use>
                        </g>
                        <path d="M17.576,16.816 C18.08,16.792 18.476,16.66 18.74,16.408 C19.028,16.096 19.232,15.208 19.352,13.72 L18.512,13.456 C18.44,14.776 18.284,15.544 18.044,15.76 C17.864,15.904 17.624,15.976 17.336,15.976 L11.312,15.976 C10.76,15.976 10.484,15.7 10.484,15.172 L10.484,11.632 L18.02,11.632 L18.02,6.832 L9.14,6.832 L9.14,7.672 L17.144,7.672 L17.144,10.804 L10.484,10.804 L10.484,9.028 L9.62,9.028 L9.62,15.328 C9.62,16.312 10.1,16.816 11.072,16.816 L17.576,16.816 Z M31.376,16.924 L31.376,16.228 L29.636,16.228 L29.636,10.936 L26.156,10.936 C26.204,10.72 26.24,10.492 26.288,10.252 L31.16,10.252 L31.16,9.592 L26.384,9.592 L26.456,8.896 L30.344,8.896 L30.344,6.652 L21.656,6.652 L21.656,8.896 L25.592,8.896 L25.52,9.592 L20.852,9.592 L20.852,10.252 L25.424,10.252 L25.292,10.936 L25.292,10.936 L22.376,10.936 L22.376,16.228 L20.636,16.228 L20.636,16.924 L31.376,16.924 Z M29.528,8.284 L27.74,8.284 L27.74,7.288 L29.528,7.288 L29.528,8.284 Z M26.948,8.284 L25.052,8.284 L25.052,7.288 L26.948,7.288 L26.948,8.284 Z M24.272,8.284 L22.484,8.284 L22.484,7.288 L24.272,7.288 L24.272,8.284 Z M28.784,12.292 L23.216,12.292 L23.216,11.536 L28.784,11.536 L28.784,12.292 Z M28.784,13.588 L23.216,13.588 L23.216,12.832 L28.784,12.832 L28.784,13.588 Z M28.784,14.896 L23.216,14.896 L23.216,14.14 L28.784,14.14 L28.784,14.896 Z M28.784,16.228 L23.216,16.228 L23.216,15.436 L28.784,15.436 L28.784,16.228 Z M38.444,14.524 L38.444,9.616 L42.08,9.616 L42.08,14.5 L42.932,14.5 L42.932,8.812 L40.52,8.812 C40.592,8.404 40.64,7.984 40.676,7.552 L43.328,7.552 L43.328,6.712 L37.256,6.712 L37.256,7.552 L39.8,7.552 C39.764,7.984 39.716,8.404 39.644,8.812 L37.604,8.812 L37.604,14.524 L38.444,14.524 Z M34.364,17.044 C35.048,17.044 35.396,16.684 35.396,15.976 L35.396,7.552 L36.836,7.552 L36.836,6.712 L32.66,6.712 L32.66,7.552 L34.508,7.552 L34.508,15.76 C34.508,16.096 34.352,16.276 34.064,16.276 C33.668,16.276 33.248,16.252 32.816,16.228 L33.008,17.044 L34.364,17.044 Z M36.812,17.152 C38.144,16.744 39.104,16.192 39.692,15.496 C40.292,14.752 40.604,13.732 40.64,12.46 L40.64,10.324 L39.788,10.324 L39.788,12.46 C39.752,13.48 39.5,14.308 39.02,14.944 C38.516,15.556 37.628,16.048 36.344,16.42 L36.812,17.152 Z M42.8,17.212 L43.424,16.576 C42.836,15.904 42.104,15.244 41.24,14.572 L40.652,15.124 C41.564,15.868 42.272,16.564 42.8,17.212 Z" id="已置顶" fill="#000000" fill-rule="nonzero"></path>
                    </g>
                </g>
            </g>
        </g>
    </g>
</svg>