<?xml version="1.0" encoding="UTF-8"?>
<svg width="17px" height="17px" viewBox="0 0 17 17" version="1.1" xmlns="http://www.w3.org/2000/svg" xmlns:xlink="http://www.w3.org/1999/xlink">
    <title>gaoding-灰色</title>
    <g id="场景英语web端20230929✅" stroke="none" stroke-width="1" fill="none" fill-rule="evenodd">
        <g id="关注点" transform="translate(-657.000000, -29.000000)" fill="#9A9A9A" fill-rule="nonzero">
            <g id="gaoding" transform="translate(657.000000, 29.000000)">
                <path d="M8.34821428,0 C10.508631,0 12.4707143,0.824585858 13.9490847,2.18318922 L12.8178094,3.22536809 C11.6230549,2.17675169 10.0631376,1.54545454 8.34821428,1.54545454 C4.55357142,1.54545454 1.51785714,4.63636363 1.51785714,8.5 C1.51785714,12.3636364 4.55357142,15.4545455 8.34821428,15.4545455 C12.1428571,15.4545455 15.1785714,12.3636364 15.1785714,8.5 C15.1785714,7.85020661 15.0927059,7.22226991 14.9318055,6.62721759 L16.0546259,5.2114681 C16.4682697,6.22178724 16.6964286,7.33244784 16.6964286,8.5 C16.6964286,13.2136364 12.9776786,17 8.34821428,17 C3.71874999,17 7.70938868e-13,13.2136364 7.70938868e-13,8.5 C7.70938868e-13,3.78636363 3.71874999,0 8.34821428,0 Z" id="形状结合"></path>
                <polygon id="路径" points="4.55357142 6.18181818 3.79464286 7.72727272 9.10714286 13.1363636 16.6964286 3.09090909 15.9375 1.54545454 8.34821428 8.5"></polygon>
            </g>
        </g>
    </g>
</svg>