<?xml version="1.0" encoding="UTF-8"?>
<svg width="19px" height="19px" viewBox="0 0 19 19" version="1.1" xmlns="http://www.w3.org/2000/svg" xmlns:xlink="http://www.w3.org/1999/xlink">
    <title>熟词2</title>
    <g id="场景英语web端20230929✅" stroke="none" stroke-width="1" fill="none" fill-rule="evenodd">
        <g id="关注点" transform="translate(-622.000000, -8.000000)" fill="#9A9A9A" fill-rule="nonzero">
            <g id="熟词-2" transform="translate(622.000000, 8.000000)">
                <g id="熟词2" transform="translate(1.583333, 0.000000)">
                    <path d="M13.0392157,0 C14.5823643,0 15.8333333,1.25134703 15.8333333,2.79496183 L15.8333333,18.0679677 C15.8333333,18.416042 15.6391975,18.7350396 15.33019,18.8950782 C15.0211825,19.0551168 14.6487606,19.029502 14.3645588,18.8286632 L8.99379902,15.0349683 C8.34984147,14.5799846 7.48927719,14.579798 6.84512255,15.0345025 L1.46830882,18.8295948 C1.18404787,19.0302147 0.811707128,19.0556384 0.502829513,18.8955184 C0.193951897,18.7353983 0,18.4164299 0,18.0684336 L0,2.79496183 C0,1.25134703 1.25096908,0 2.79411765,0 L13.0392157,0 Z M13.0392157,1 L2.79411765,1 C1.85286127,1 1.08080083,1.72521666 1.00594793,2.6477379 L1,2.79496183 L1,17.935 L6.26843333,14.2175389 C7.20021178,13.5598026 8.4266721,13.5213663 9.39278364,14.102051 L9.57074308,14.2181847 L14.833,17.936 L14.8333333,2.79496183 C14.8333333,1.85313405 14.1083357,1.080826 13.1863521,1.00594976 L13.0392157,1 Z" id="路径"></path>
                    <path d="M5.13186667,6.556 L5.13186667,5.4736 L10.9398667,5.4736 L10.9398667,6.5296 L11.7670667,6.5296 L11.7670667,4.7608 L10.2622667,4.7608 C10.4030667,4.5584 10.5350667,4.3384 10.6494667,4.092 L9.83986667,3.8104 C9.69906667,4.1448 9.54066667,4.4616 9.35586667,4.7608 L8.44946667,4.7608 L8.44946667,3.7576 L7.62226667,3.7576 L7.62226667,4.7608 L6.74226667,4.7608 C6.58386667,4.4088 6.39906667,4.092 6.20546667,3.828 L5.41346667,4.1184 C5.58066667,4.3208 5.73026667,4.532 5.86226667,4.7608 L4.30466667,4.7608 L4.30466667,6.556 L5.13186667,6.556 Z M10.3326667,7.5856 L10.3326667,5.896 L5.73906667,5.896 L5.73906667,7.5856 L10.3326667,7.5856 Z M9.51426667,6.9872 L6.55746667,6.9872 L6.55746667,6.4944 L9.51426667,6.4944 L9.51426667,6.9872 Z M7.67506667,11.924 C8.25586667,11.924 8.54626667,11.6424 8.54626667,11.088 L8.54626667,10.7712 L11.8110667,10.7712 L11.8110667,10.0936 L8.54626667,10.0936 L8.54626667,9.6888 L11.1158667,9.6888 L11.1158667,9.0552 L8.54626667,9.0552 L8.54626667,8.6152 C9.47906667,8.5624 10.3150667,8.4832 11.0366667,8.3864 L10.6494667,7.7264 C9.08306667,7.9552 7.16466667,8.0784 4.88546667,8.0784 L5.08786667,8.7032 C6.03826667,8.7032 6.91826667,8.6856 7.72786667,8.6504 L7.72786667,9.0552 L4.88546667,9.0552 L4.88546667,9.6888 L7.72786667,9.6888 L7.72786667,10.0936 L4.21666667,10.0936 L4.21666667,10.7712 L7.72786667,10.7712 L7.72786667,10.912 C7.72786667,11.1408 7.62226667,11.2552 7.41986667,11.2552 C7.10306667,11.2552 6.77746667,11.2376 6.43426667,11.2112 L6.60146667,11.924 L7.67506667,11.924 Z" id="掌"></path>
                </g>
            </g>
        </g>
    </g>
</svg>