<?xml version="1.0" standalone="no"?><!DOCTYPE svg PUBLIC "-//W3C//DTD SVG 1.1//EN" "http://www.w3.org/Graphics/SVG/1.1/DTD/svg11.dtd"><svg t="1701756605504" class="icon" viewBox="0 0 1024 1024" version="1.1" xmlns="http://www.w3.org/2000/svg" p-id="2908" xmlns:xlink="http://www.w3.org/1999/xlink" width="200" height="200"><path d="M788.061328 0a150.613197 150.613197 0 0 1 150.55931 150.613197v823.010865a50.222361 50.222361 0 0 1-79.213381 40.953857l-289.371331-204.392078a100.336949 100.336949 0 0 0-115.802419 0L164.538856 1014.685692a50.168475 50.168475 0 0 1-79.159494-41.06163V150.613197A150.613197 150.613197 0 0 1 235.938672 0h552.122656z m0 53.886654H235.938672c-50.653455 0-92.307838 39.067824-96.349337 88.805205l-0.32332 7.921338v815.84394l283.928779-200.296693a154.223603 154.223603 0 0 1 168.341907-6.250851l9.591824 6.250851 283.551573 200.350579V150.613197c0-50.761228-39.013937-92.361725-88.697432-96.45711L788.061328 53.886654z" fill="#9A9A9A" p-id="2909"></path><path d="M519.274698 279.4023V241.412209H431.008359c-3.664292-9.268504-6.897492-18.052029-10.130691-25.91948l-48.713535 8.352431c3.233199 5.065345 6.466398 11.100651 9.699598 17.567049H304.105289v37.936205h215.115523z m-0.48498 265.930637a245.992575 245.992575 0 0 0 58.359246-77.219575c8.298545 12.016724 16.543203 24.949521 24.787861 38.798391l34.487459-33.733046a588.981127 588.981127 0 0 0-40.414991-54.1022 448.552507 448.552507 0 0 0 15.62713-94.840511h25.703934c-1.832146 27.320533-2.694333 50.869001-2.694333 71.238157 0 30.553733 2.263239 57.3354 6.843605 79.536701 4.580366 19.453082 11.477857 33.301952 19.776402 41.654383 9.160731 9.268504 18.860329 13.84887 28.937133 13.84887a32.116446 32.116446 0 0 0 23.925675-14.33385c7.328585-12.016724 13.310003-34.649118 17.890369-67.95107l-36.265718-16.704863a204.230418 204.230418 0 0 1-3.71818 32.870859c-0.916073 7.382472-3.233199 12.016724-5.927531 13.417777-2.317126-0.916073-4.634252-8.352431-6.466399-22.201302a669.380014 669.380014 0 0 1-1.832146-60.137505c0-36.104058 2.317126-75.441315 6.897492-117.041813h-72.208117v-61.969652h-45.911429v61.969652h-44.133169v45.803656h42.732116c-1.347166 19.399195-3.664292 37.451224-7.328585 55.07216a355.328595 355.328595 0 0 0-25.326727-20.854135l-27.0511 31.469806c12.825024 11.100651 25.703934 23.602354 38.151751 37.020131A204.984831 204.984831 0 0 1 482.901207 513.432038l35.834625 31.900899z m-22.093528-171.144013v-81.368847H329.05481v81.368847h167.749154z m-43.163209-30.499846H371.73304v-21.285228h81.799941v21.285228z m-60.191393 202.613819c31.685352 0 47.797462-12.07061 47.797462-36.104058V482.824418c24.787861-2.748219 44.995356-5.065345 60.622486-7.867451v-35.565192c-17.459276 2.748219-37.666771 5.550325-60.622486 7.813565V441.331695l45.911429-24.087334v-30.014866h-162.198828v36.104058h101.091363l-30.338186 14.279963v13.902757c-27.53608 1.832146-58.359246 3.664292-91.876745 5.065345l5.927532 36.535151c31.739239-1.832146 60.245279-4.149272 85.949213-5.981418v12.016724c0 7.382472-5.927532 11.100651-16.974296 11.10065a213.930016 213.930016 0 0 1-31.739239-3.718179l11.477857 39.768351h34.972438zM678.240327 646.639846l39.983897-28.236606c-14.226077-24.518427-34.487458-53.186127-60.191392-86.0031l-40.41499 25.434501c25.703934 32.331992 45.965316 61.969652 60.622485 88.805205z m-126.364203-1.401053l48.282442-11.100651a953.093247 953.093247 0 0 0-27.589967-88.374112l-45.534223 9.268505c10.130691 25.91948 18.429236 56.04212 24.841748 90.206258z m-211.397343-1.401053A330.702395 330.702395 0 0 0 402.071226 568.504198l-39.983897-19.884175c-17.459276 25.865594-37.720658 47.635802-61.161352 66.172811l39.552804 29.098793z m106.587801 2.317126l47.797462-11.531744c-5.927532-30.068753-12.39393-58.305359-19.722515-84.170953l-45.534223 9.214618c6.897492 25.003407 12.932797 53.671107 17.459276 86.488079z" fill="#9A9A9A" p-id="2910"></path></svg>