<?xml version="1.0" encoding="UTF-8"?>
<svg width="19px" height="19px" viewBox="0 0 19 19" version="1.1" xmlns="http://www.w3.org/2000/svg" xmlns:xlink="http://www.w3.org/1999/xlink">
    <title>生词2</title>
    <g id="场景英语web端20230929✅" stroke="none" stroke-width="1" fill="none" fill-rule="evenodd">
        <g id="关注点" transform="translate(-551.000000, -8.000000)" fill="#9A9A9A" fill-rule="nonzero">
            <g id="生词2" transform="translate(551.000000, 8.000000)">
                <g transform="translate(1.583333, 0.000000)">
                    <path d="M13.0392157,0 C14.5823643,0 15.8333333,1.25134703 15.8333333,2.79496183 L15.8333333,18.0679677 C15.8333333,18.416042 15.6391975,18.7350396 15.33019,18.8950782 C15.0211825,19.0551168 14.6487606,19.029502 14.3645588,18.8286632 L8.99379902,15.0349683 C8.34984147,14.5799846 7.48927719,14.579798 6.84512255,15.0345025 L1.46830882,18.8295948 C1.18404787,19.0302147 0.811707128,19.0556384 0.502829513,18.8955184 C0.193951897,18.7353983 0,18.4164299 0,18.0684336 L0,2.79496183 C0,1.25134703 1.25096908,0 2.79411765,0 L13.0392157,0 Z M13.0392157,1 L2.79411765,1 C1.85286127,1 1.08080083,1.72521666 1.00594793,2.6477379 L1,2.79496183 L1,17.935 L6.26843333,14.2175389 C7.20021178,13.5598026 8.4266721,13.5213663 9.39278364,14.102051 L9.57074308,14.2181847 L14.833,17.936 L14.8333333,2.79496183 C14.8333333,1.85313405 14.1083357,1.080826 13.1863521,1.00594976 L13.0392157,1 Z" id="路径"></path>
                    <path d="M12.0985905,11.6097853 L12.0985905,10.7194788 L8.73224476,10.7194788 L8.73224476,8.85325924 L11.358347,8.85325924 L11.358347,7.9886346 L8.73224476,7.9886346 L8.73224476,6.31074916 L11.525783,6.31074916 L11.525783,5.44612452 L8.73224476,5.44612452 L8.73224476,4.04217956 L7.80694029,4.04217956 L7.80694029,5.44612452 L6.27357859,5.44612452 C6.37932768,5.1208202 6.46745191,4.76983396 6.54676372,4.40172644 L5.60383441,4.23051364 C5.33064928,5.5916554 4.80190386,6.67029604 4.00878575,7.4749962 L4.61684297,8.21977188 C5.15440081,7.70613348 5.59502198,7.06408548 5.9387065,6.31074916 L7.80694029,6.31074916 L7.80694029,7.9886346 L5.32183685,7.9886346 L5.32183685,8.85325924 L7.80694029,8.85325924 L7.80694029,10.7194788 L4.25553361,10.7194788 L4.25553361,11.6097853 L12.0985905,11.6097853 Z" id="生"></path>
                </g>
            </g>
        </g>
    </g>
</svg>